<?xml version="1.0" encoding="UTF-8"?>
<svg version="1.1" xmlns="http://www.w3.org/2000/svg" width="1419" height="300">
<path d="M0 0 C468.27 0 936.54 0 1419 0 C1419 99 1419 198 1419 300 C950.73 300 482.46 300 0 300 C0 201 0 102 0 0 Z " fill="#FEFEFE" transform="translate(0,0)"/>
<path d="M0 0 C10.23 0 20.46 0 31 0 C31 19.8 31 39.6 31 60 C31.66 60 32.32 60 33 60 C33.33 59.01 33.66 58.02 34 57 C47.75514988 46.87915394 63.07465916 45.06959195 79.609375 47.5390625 C92.74900692 50.57385058 104.13800352 57.93287306 112 69 C118.65907248 80.32825742 121.56022679 90.64507973 121.4375 103.75 C121.42847656 104.90016602 121.41945313 106.05033203 121.41015625 107.23535156 C121.07987164 123.45140833 115.96517707 137.74455523 104.9375 149.875 C94.48665788 159.58194537 81.66968678 164.38663135 67.5625 164.25 C66.76779297 164.25773438 65.97308594 164.26546875 65.15429688 164.2734375 C57.06415606 164.24710669 49.98257889 162.85732012 42.75 159.125 C41.77546875 158.63257813 40.8009375 158.14015625 39.796875 157.6328125 C36.95890198 155.97600702 34.50942325 154.11560865 32 152 C31.67 154.97 31.34 157.94 31 161 C20.77 161 10.54 161 0 161 C0 107.87 0 54.74 0 0 Z " fill="#1E2937" transform="translate(413,63)"/>
<path d="M0 0 C4.04424665 2.12210072 7.33349369 4.53578366 10.6875 7.625 C11.0175 3.995 11.3475 0.365 11.6875 -3.375 C21.9175 -3.375 32.1475 -3.375 42.6875 -3.375 C42.6875 33.585 42.6875 70.545 42.6875 108.625 C32.4575 108.625 22.2275 108.625 11.6875 108.625 C11.3575 104.995 11.0275 101.365 10.6875 97.625 C9.65625 98.65625 8.625 99.6875 7.5625 100.75 C-4.33707158 111.22332597 -19.19671496 112.54815358 -34.3125 111.625 C-45.39325741 110.04776312 -56.38153274 104.52936766 -63.3125 95.625 C-68.58737287 88.08233141 -72.75303626 80.48175818 -75.3125 71.625 C-75.66828125 70.39523438 -76.0240625 69.16546875 -76.390625 67.8984375 C-80.35479846 51.6430371 -76.83523938 33.93518982 -69.07421875 19.41015625 C-53.73209769 -4.84468259 -25.59398926 -11.984187 0 0 Z " fill="#1F2A38" transform="translate(624.3125,115.375)"/>
<path d="M0 0 C11.22 0 22.44 0 34 0 C34.01458252 2.99674805 34.02916504 5.99349609 34.04418945 9.08105469 C34.09467252 19.01565467 34.16129155 28.95010017 34.23571491 38.88454819 C34.28031892 44.90397537 34.31959692 50.92333641 34.34643555 56.94287109 C34.37256805 62.75908255 34.41304045 68.57503816 34.46318626 74.39109039 C34.47978789 76.60284476 34.49134369 78.81464332 34.49761391 81.02645111 C34.27001712 104.27682059 34.27001712 104.27682059 45.04296875 124.19140625 C54.61932792 133.14142868 62.76933427 135.19598665 75.5625 135.3125 C76.59697266 135.34150391 77.63144531 135.37050781 78.69726562 135.40039062 C90.31126573 135.49493164 99.56175666 132.04270068 108 124 C115.97461704 115.59817134 118.60643794 105.45270685 118.54589844 94.11254883 C118.56140495 92.57395203 118.56140495 92.57395203 118.57722473 91.00427246 C118.60643504 87.65502766 118.60814731 84.30639288 118.609375 80.95703125 C118.62437131 78.61861534 118.64110148 76.28020997 118.65948486 73.94181824 C118.70300725 67.81809986 118.72312405 61.69452434 118.73822021 55.57067871 C118.75784581 49.30940354 118.79980966 43.04828143 118.83984375 36.78710938 C118.91498238 24.52476105 118.96330575 12.26252369 119 0 C130.22 0 141.44 0 153 0 C153.06802344 13.30084933 153.12295846 26.60158139 153.15543652 39.90256596 C153.17103149 46.08004835 153.19215615 52.25740462 153.22631836 58.43481445 C153.25913292 64.4065263 153.27689929 70.37811752 153.28463173 76.34991264 C153.29013581 78.61785211 153.30088286 80.88578566 153.31719017 83.15367317 C153.46207414 104.15563947 152.36754515 123.37991599 138 140 C137.236875 140.97839844 136.47375 141.95679688 135.6875 142.96484375 C133.04436441 146.13780606 129.93386635 148.42879673 126.5 150.6875 C125.94441406 151.06455078 125.38882813 151.44160156 124.81640625 151.83007812 C103.79226795 166.00282077 77.39207342 167.14795687 53 163 C37.04496955 159.6492217 21.42252799 149.81094836 11.70703125 136.6796875 C0.44769485 119.00484821 -0.58133003 101.63520452 -0.390625 81.34765625 C-0.38314968 78.99255355 -0.37746286 76.63744456 -0.37347412 74.28233337 C-0.35831952 68.13219541 -0.3191268 61.98244503 -0.2746582 55.8324585 C-0.23348437 49.53744751 -0.21541618 43.24237292 -0.1953125 36.94726562 C-0.15262146 24.63131413 -0.08235629 12.31575018 0 0 Z " fill="#2684FE" transform="translate(167,63)"/>
<path d="M0 0 C0.95583984 -0.02900391 1.91167969 -0.05800781 2.89648438 -0.08789062 C11.61880709 -0.16518455 17.96442935 2.42365028 25.125 7.3125 C25.83269531 7.786875 26.54039063 8.26125 27.26953125 8.75 C29.3125 10.3125 29.3125 10.3125 33.3125 14.3125 C33.6425 10.3525 33.9725 6.3925 34.3125 2.3125 C44.5425 2.3125 54.7725 2.3125 65.3125 2.3125 C65.3125 39.2725 65.3125 76.2325 65.3125 114.3125 C55.4125 114.3125 45.5125 114.3125 35.3125 114.3125 C35.3125 110.3525 35.3125 106.3925 35.3125 102.3125 C34.6525 102.3125 33.9925 102.3125 33.3125 102.3125 C33.06113281 102.91191406 32.80976562 103.51132813 32.55078125 104.12890625 C28.94379705 110.48948722 19.81245783 114.00743306 13.23828125 116.39453125 C0.01840645 120.00691865 -14.5538015 118.03596274 -26.53515625 111.83984375 C-40.15348084 103.91611431 -48.36460775 91.27784895 -52.6875 76.3125 C-54.91744046 64.11929993 -54.76188136 51.05920433 -50.6875 39.3125 C-50.3471875 38.31863281 -50.006875 37.32476562 -49.65625 36.30078125 C-43.56666602 20.23333163 -32.98629789 9.98265651 -17.82421875 2.66015625 C-11.84568413 0.09154548 -6.44154845 0.06386201 0 0 Z " fill="#1F2A38" transform="translate(1015.6875,109.6875)"/>
<path d="M0 0 C1.3397257 1.10754842 2.6366073 2.26682492 3.91796875 3.44140625 C2.33213958 8.31149702 -0.47430605 11.96610439 -3.51953125 16.00390625 C-4.01001953 16.66326172 -4.50050781 17.32261719 -5.00585938 18.00195312 C-6.35921258 19.81920878 -7.71920758 21.63124759 -9.08203125 23.44140625 C-9.69175781 24.25480469 -10.30148437 25.06820312 -10.9296875 25.90625 C-11.30996094 26.41285156 -11.69023438 26.91945312 -12.08203125 27.44140625 C-15.52666253 26.17897594 -18.30362761 24.71432146 -21.26953125 22.56640625 C-25.94740456 19.3751782 -30.72638247 17.24300064 -36.08203125 15.44140625 C-37.14679688 15.08175781 -38.2115625 14.72210938 -39.30859375 14.3515625 C-52.55144365 11.15737614 -67.21668946 12.65912991 -78.83203125 19.75390625 C-80.59778272 20.96033588 -82.34936179 22.18792819 -84.08203125 23.44140625 C-84.74203125 23.90417969 -85.40203125 24.36695313 -86.08203125 24.84375 C-95.13040476 31.8118055 -101.63760025 44.45593934 -103.7578125 55.62109375 C-105.78818191 73.28286137 -103.15952477 89.04308863 -92.08203125 103.44140625 C-91.60636719 104.08335937 -91.13070312 104.7253125 -90.640625 105.38671875 C-84.04804096 113.06372262 -71.56196201 118.90033059 -61.6171875 120.26171875 C-60.36228516 120.35066406 -60.36228516 120.35066406 -59.08203125 120.44140625 C-58.02886719 120.52132812 -56.97570312 120.60125 -55.890625 120.68359375 C-40.61285661 121.26397825 -24.99135471 116.6738758 -13.33203125 106.56640625 C-12.23645022 105.53762894 -11.14786566 104.50097105 -10.08203125 103.44140625 C-5.49752973 107.18385647 -1.54999763 111.03297754 2.2734375 115.546875 C3.73499333 117.23061509 5.24440141 118.7779504 6.85546875 120.31640625 C8.91796875 122.44140625 8.91796875 122.44140625 8.91796875 124.44140625 C9.57796875 124.44140625 10.23796875 124.44140625 10.91796875 124.44140625 C6.24965104 135.28699284 -8.95697684 140.35266783 -19.13671875 144.765625 C-41.52536152 153.49395095 -70.10391277 151.95649232 -92.1328125 142.83203125 C-99.61228491 139.46734583 -106.02292152 134.92965771 -112.08203125 129.44140625 C-112.91347656 128.714375 -113.74492188 127.98734375 -114.6015625 127.23828125 C-128.06442907 114.74738815 -137.44769923 95.95696281 -138.203125 77.47949219 C-138.28915955 73.92442178 -138.31697918 70.37245803 -138.33203125 66.81640625 C-138.35265625 65.62144531 -138.37328125 64.42648438 -138.39453125 63.1953125 C-138.44418254 51.7382777 -136.52588013 41.1968636 -131.45703125 30.87890625 C-131.11148193 30.16347656 -130.76593262 29.44804688 -130.40991211 28.7109375 C-120.01089441 7.90824201 -102.69373631 -5.77720122 -81.14453125 -13.62890625 C-54.60533596 -21.96286087 -22.19002201 -16.61129227 0 0 Z " fill="#1E2938" transform="translate(943.08203125,77.55859375)"/>
<path d="M0 0 C1.02480469 -0.01998047 2.04960938 -0.03996094 3.10546875 -0.06054688 C13.6605469 -0.05384098 22.35001724 3.2334663 30.125 10.4375 C39.44520494 20.06617508 42.3067407 33.20254471 42.23852539 46.20874023 C42.23867142 46.95103378 42.23881744 47.69332733 42.2389679 48.45811462 C42.23827674 50.88747176 42.23052203 53.31675017 42.22265625 55.74609375 C42.22078923 57.44002745 42.21936667 59.13396169 42.21836853 60.82789612 C42.21456568 65.26823438 42.20475462 69.7085395 42.19366455 74.14886475 C42.18340227 78.68712923 42.17886062 83.22539911 42.17382812 87.76367188 C42.1631302 96.65496476 42.14555165 105.54622443 42.125 114.4375 C31.895 114.4375 21.665 114.4375 11.125 114.4375 C11.08761719 109.405 11.05023437 104.3725 11.01171875 99.1875 C10.98142193 95.98824782 10.95026297 92.78905013 10.91601562 89.58984375 C10.86180787 84.51842074 10.81069357 79.4471055 10.77856445 74.37548828 C10.75244365 70.28394196 10.71198018 66.19276008 10.66181374 62.10144043 C10.64520409 60.54509027 10.6336532 58.98867715 10.62738609 57.43225098 C10.67779521 44.24561046 10.67779521 44.24561046 5 32.625 C-0.98467492 28.071443 -7.47811245 26.73303452 -14.875 27.4375 C-21.65624637 29.06348658 -25.66317516 32.19875649 -29.625 38 C-31.90454679 42.44511624 -32.01766724 46.34078365 -32.08032227 51.31738281 C-32.09517166 52.34238388 -32.09517166 52.34238388 -32.11032104 53.38809204 C-32.14182044 55.63890154 -32.16664752 57.88973211 -32.19140625 60.140625 C-32.21198577 61.70433083 -32.23298251 63.26803122 -32.25437927 64.83172607 C-32.30949686 68.94160551 -32.35895148 73.05153428 -32.40722656 77.16149902 C-32.46636354 82.09585959 -32.53253462 87.03013024 -32.59752655 91.9644165 C-32.69540628 99.45538928 -32.78435099 106.94642051 -32.875 114.4375 C-43.105 114.4375 -53.335 114.4375 -63.875 114.4375 C-63.875 77.4775 -63.875 40.5175 -63.875 2.4375 C-53.975 2.4375 -44.075 2.4375 -33.875 2.4375 C-33.545 5.7375 -33.215 9.0375 -32.875 12.4375 C-31.6065625 11.51517578 -31.6065625 11.51517578 -30.3125 10.57421875 C-29.16699956 9.75734548 -28.02114712 8.94096567 -26.875 8.125 C-26.04548828 7.51881836 -26.04548828 7.51881836 -25.19921875 6.90039062 C-17.02366186 1.12111765 -9.94989076 -0.0683201 0 0 Z " fill="#1E2937" transform="translate(748.875,109.5625)"/>
<path d="M0 0 C9.9 0 19.8 0 30 0 C30 11.22 30 22.44 30 34 C37.92 34 45.84 34 54 34 C54 42.91 54 51.82 54 61 C46.08 61 38.16 61 30 61 C30.07420612 67.81416869 30.15722741 74.62707479 30.26245117 81.44067383 C30.29558546 83.75571014 30.32365272 86.070825 30.34643555 88.38598633 C30.3801931 91.72511078 30.43252031 95.06352281 30.48828125 98.40234375 C30.49467117 99.42770737 30.5010611 100.45307098 30.50764465 101.50950623 C30.63084713 107.61130422 31.09083913 113.51321268 34 119 C37.60498719 121.4033248 40.51127092 121.43713424 44.6875 121.625 C47.100625 121.74875 49.51375 121.8725 52 122 C52 130.58 52 139.16 52 148 C47.54100235 148.10860887 43.08468911 148.18762673 38.625 148.25 C37.37332031 148.28351563 36.12164063 148.31703125 34.83203125 148.3515625 C24.74666233 148.45716846 16.11639092 146.89837716 8.53125 139.83203125 C0.4475167 130.16042176 -0.29262735 119.22355683 -0.1953125 107.19140625 C-0.19157667 105.85619825 -0.18873239 104.52098749 -0.18673706 103.18577576 C-0.17914541 99.69231434 -0.15953606 96.19902245 -0.1373291 92.70562744 C-0.11677371 89.13255099 -0.10771473 85.55944682 -0.09765625 81.98632812 C-0.07628532 74.99080927 -0.04114028 67.99543026 0 61 C-5.61 61 -11.22 61 -17 61 C-17 52.09 -17 43.18 -17 34 C-11.39 34 -5.78 34 0 34 C0 22.78 0 11.56 0 0 Z " fill="#1F2A39" transform="translate(1190,78)"/>
<path d="M0 0 C0 9.9 0 19.8 0 30 C-4.62 30.66 -9.24 31.32 -14 32 C-21.92000706 35.15000281 -27.338733 38.50167018 -31.10992432 46.29316711 C-34.12287979 53.9296708 -34.60125344 60.82492213 -34.609375 68.98046875 C-34.62591125 70.27447098 -34.64244751 71.56847321 -34.65948486 72.90168762 C-34.70273554 76.30295802 -34.72306185 79.70397269 -34.73822021 83.10546875 C-34.75794612 86.5919465 -34.79968665 90.07816072 -34.83984375 93.56445312 C-34.91672423 100.37646846 -34.95748729 107.18733861 -35 114 C-45.23 114 -55.46 114 -66 114 C-66 77.04 -66 40.08 -66 2 C-56.1 2 -46.2 2 -36 2 C-35.67 6.29 -35.34 10.58 -35 15 C-33.72125 13.618125 -32.4425 12.23625 -31.125 10.8125 C-21.57678264 1.21895882 -13.51917492 0 0 0 Z " fill="#212C3A" transform="translate(402,110)"/>
<path d="M0 0 C0 9.9 0 19.8 0 30 C-2.475 30.2475 -4.95 30.495 -7.5 30.75 C-15.4819733 31.69419925 -21.49532133 33.1377323 -27.25 39.0625 C-33.90554379 47.83458065 -34.59893768 57.53240128 -34.609375 68.19921875 C-34.62591125 69.51541702 -34.64244751 70.8316153 -34.65948486 72.18769836 C-34.70274593 75.64815232 -34.72306426 79.10835487 -34.73822021 82.56903076 C-34.75794225 86.11582912 -34.79968316 89.66236827 -34.83984375 93.20898438 C-34.91673691 100.13948663 -34.95749072 107.06886219 -35 114 C-45.23 114 -55.46 114 -66 114 C-66 77.04 -66 40.08 -66 2 C-56.1 2 -46.2 2 -36 2 C-35.67 6.29 -35.34 10.58 -35 15 C-33.700625 13.618125 -32.40125 12.23625 -31.0625 10.8125 C-21.22597244 0.96045741 -14.24996678 0 0 0 Z " fill="#1E2937" transform="translate(1161,110)"/>
<path d="M0 0 C6.91951538 4.36230317 10.80321611 11.27515899 13 19 C14.49344024 28.53973052 13.85437961 38.02180067 8.91015625 46.4375 C4.35128678 52.55328399 -0.48699621 57.13065072 -8 59 C-17.30336313 60.10228395 -27.19082752 60.64269921 -34.98828125 54.83203125 C-43.37317405 47.19608033 -46.90977859 40.91928822 -47.50244141 29.5534668 C-47.73009633 20.58515851 -46.61598209 13.34220609 -41 6 C-38.22698232 3.19684083 -35.36601334 1.0410932 -32 -1 C-30.948125 -1.639375 -29.89625 -2.27875 -28.8125 -2.9375 C-18.88985497 -5.7028273 -9.16947954 -4.56106641 0 0 Z " fill="#FCFCFD" transform="translate(491,141)"/>
<path d="M0 0 C5.69467573 4.60846907 9.32305995 10.21339486 10.671875 17.45703125 C11.39118671 28.69480264 11.38519052 39.31944874 4.484375 48.83203125 C-3.5454165 56.32650332 -11.15363503 57.77167898 -21.84375 57.671875 C-29.12280224 57.22305451 -34.07481496 54.59094788 -39.328125 49.45703125 C-47.07091955 39.94445509 -47.18631853 28.57022925 -46.08203125 16.84375 C-44.79062047 9.13522587 -40.34313546 3.84103378 -34.328125 -0.91796875 C-23.70364633 -8.28107261 -10.59345364 -7.02082917 0 0 Z " fill="#FCFCFD" transform="translate(626.328125,142.54296875)"/>
<path d="M0 0 C1.4802619 0.880817 2.94264787 1.7932444 4.375 2.75 C5.303125 3.3275 6.23125 3.905 7.1875 4.5 C13.59838966 11.09405793 16.41013751 19.50199214 16.6875 28.5625 C16.48735785 37.99272702 14.13237678 45.94717002 7.375 52.75 C-2.25628977 60.17175859 -11.49808915 60.6981396 -23.375 59.3125 C-31.41298667 55.44808333 -37.57191936 49.15158896 -40.84765625 40.83984375 C-43.76715163 29.23521638 -41.45680898 19.72936636 -35.875 9.5625 C-26.86963987 -1.69420016 -13.69793394 -6.69447899 0 0 Z " fill="#FCFCFD" transform="translate(1035.625,140.25)"/>
<path d="M0 0 C9.24 0 18.48 0 28 0 C28 4.62 28 9.24 28 14 C27.67 14 27.34 14 27 14 C27 9.71 27 5.42 27 1 C18.42 1 9.84 1 1 1 C1.16371094 4.0628125 1.32742188 7.125625 1.49609375 10.28125 C2.33778233 28.70276362 2.11191312 47.15157932 2.06866455 65.5871582 C2.05827664 70.49560102 2.05383442 75.40404927 2.04882812 80.3125 C2.03823074 89.87501623 2.02070219 99.43750031 2 109 C15.365 109.495 15.365 109.495 29 110 C28.97679687 105.77574219 28.95359375 101.55148438 28.9296875 97.19921875 C28.91682679 93.83230457 28.90598076 90.46539733 28.89649963 87.0984726 C28.88593559 83.54354428 28.871817 79.98871122 28.84912109 76.43383789 C28.82324669 72.35562209 28.8135291 68.27750729 28.8046875 64.19921875 C28.79436493 62.92414963 28.78404236 61.64908051 28.77340698 60.33537292 C28.77325592 59.15437515 28.77310486 57.97337738 28.77294922 56.7565918 C28.768508 55.71512497 28.76406677 54.67365814 28.75949097 53.60063171 C29 51 29 51 31 48 C30.67 68.79 30.34 89.58 30 111 C20.1 111 10.2 111 0 111 C0 74.37 0 37.74 0 0 Z " fill="#0C1623" transform="translate(337,113)"/>
<path d="M0 0 C4.52615993 3.67832017 8.39424999 7.41086363 12 12 C9 12 9 12 6.73828125 9.8828125 C5.93777344 8.97273437 5.13726563 8.06265625 4.3125 7.125 C3.50425781 6.22007812 2.69601562 5.31515625 1.86328125 4.3828125 C0 2 0 2 0 0 Z " fill="#182332" transform="translate(939,188)"/>
<path d="M0 0 C3.25209513 1.08403171 3.91385694 1.79991716 6 4.375 C7.90538378 6.70711035 9.83759792 8.90195513 12 11 C8.17753412 10.44040477 6.41028259 8.78682643 3.75 6.0625 C3.04359375 5.35222656 2.3371875 4.64195312 1.609375 3.91015625 C0 2 0 2 0 0 Z " fill="#15202F" transform="translate(824,198)"/>
<path d="M0 0 C4.455 1.98 4.455 1.98 9 4 C9 4.66 9 5.32 9 6 C6.03 5.01 3.06 4.02 0 3 C0 2.01 0 1.02 0 0 Z " fill="#2F3A47" transform="translate(846,215)"/>
<path d="M0 0 C2.31 1.98 4.62 3.96 7 6 C6.34 6.66 5.68 7.32 5 8 C2.5 5.6875 2.5 5.6875 0 3 C0 2.01 0 1.02 0 0 Z " fill="#26313F" transform="translate(561,208)"/>
<path d="M0 0 C1.48285242 0.95262034 2.96118201 1.91228405 4.4375 2.875 C5.67306641 3.67550781 5.67306641 3.67550781 6.93359375 4.4921875 C9 6 9 6 10 8 C5.60316512 6.80086322 2.90159066 5.5711885 0 2 C0 1.34 0 0.68 0 0 Z " fill="#162130" transform="translate(586,191)"/>
<path d="M0 0 C0 0.66 0 1.32 0 2 C-6.4 3.23076923 -6.4 3.23076923 -9.4375 2.0625 C-9.953125 1.711875 -10.46875 1.36125 -11 1 C-7.32589215 -0.17571451 -3.83070817 -0.07366746 0 0 Z " fill="#303C4A" transform="translate(876,62)"/>
</svg>
