<?xml version="1.0" encoding="UTF-8"?>
<svg version="1.1" xmlns="http://www.w3.org/2000/svg" width="1087" height="229">
<path d="M0 0 C1.1653125 -0.00128906 2.330625 -0.00257812 3.53125 -0.00390625 C4.7584375 -0.00003906 5.985625 0.00382812 7.25 0.0078125 C9.09078125 0.00201172 9.09078125 0.00201172 10.96875 -0.00390625 C12.71671875 -0.00197266 12.71671875 -0.00197266 14.5 0 C15.57765625 0.00112793 16.6553125 0.00225586 17.765625 0.00341797 C20.25 0.1328125 20.25 0.1328125 21.25 1.1328125 C21.353774 3.60504565 21.39361712 6.05024584 21.3918457 8.52319336 C21.39705734 9.68437683 21.39705734 9.68437683 21.40237427 10.86901855 C21.40974686 12.55725823 21.41508419 14.24550771 21.41866493 15.93375969 C21.4258208 18.61245973 21.44148445 21.29097554 21.46000671 23.96961975 C21.51249053 31.58852477 21.56037528 39.20733448 21.57592773 46.82641602 C21.58605766 51.48323459 21.61551823 56.13959797 21.65724754 60.79623604 C21.66950184 62.565858 21.67468905 64.33554447 21.67244911 66.10520744 C21.66176464 77.31112722 21.67606635 87.08950075 29.375 96.0078125 C35.97058594 101.97055971 44.49888315 104.22133536 53.25 104.1328125 C63.0129424 103.57322922 70.32048845 101.46603405 77.0625 94.171875 C82.08103444 87.87457938 83.54654097 82.05531439 83.55297852 74.03198242 C83.56563751 72.8480188 83.56563751 72.8480188 83.57855225 71.64013672 C83.60421164 69.04784505 83.61643924 66.45566687 83.62890625 63.86328125 C83.6450874 62.05820318 83.66226805 60.25313382 83.68040466 58.44807434 C83.72599151 53.70895397 83.76085726 48.96982195 83.79260254 44.23059082 C83.84458641 36.62723206 83.90946019 29.02400035 83.98081779 21.42080116 C84.00370905 18.76119257 84.01993719 16.10160041 84.03553772 13.44194031 C84.04893674 11.82351495 84.06255087 10.20509135 84.07641602 8.58666992 C84.07902939 7.84228165 84.08164276 7.09789337 84.08433533 6.33094788 C84.13635661 1.24645589 84.13635661 1.24645589 85.25 0.1328125 C87.24964982 0.04523247 89.2523611 0.02584674 91.25390625 0.03515625 C92.46884766 0.03837891 93.68378906 0.04160156 94.93554688 0.04492188 C96.21494141 0.05330078 97.49433594 0.06167969 98.8125 0.0703125 C100.09576172 0.07482422 101.37902344 0.07933594 102.70117188 0.08398438 C105.88416022 0.09581705 109.06705762 0.11230182 112.25 0.1328125 C112.34322464 10.5651465 112.41402869 20.99737924 112.45724869 31.43004704 C112.47800601 36.27586279 112.5061033 41.1213908 112.55175781 45.96704102 C112.59564318 50.65496533 112.6192259 55.3426152 112.62950897 60.03072929 C112.63682457 61.80746205 112.65110691 63.58418206 112.67292023 65.36079597 C112.88650769 83.50004879 110.32033664 98.65156822 97.4375 112.4453125 C84.87236617 124.23869147 67.28766776 128.77903905 50.32421875 128.3828125 C31.47669135 126.85010379 15.69190504 121.48304237 3.10546875 106.7109375 C-6.80676665 92.93814726 -7.0537724 78.03388695 -6.98046875 61.8125 C-6.97927455 60.05941807 -6.9788243 58.30633549 -6.9790802 56.55325317 C-6.97752579 52.90395018 -6.96931002 49.25474674 -6.95581055 45.60546875 C-6.93869559 40.91894341 -6.93500035 36.23252577 -6.93575573 31.54597282 C-6.9354847 27.9378862 -6.93001634 24.3298233 -6.92275429 20.72174454 C-6.91956673 18.99209904 -6.91760001 17.26245086 -6.91686058 15.53280258 C-6.91470507 13.12973115 -6.90598187 10.72677692 -6.89526367 8.32373047 C-6.89571686 7.6058989 -6.89617004 6.88806732 -6.89663696 6.14848328 C-6.85540822 -0.1368308 -6.12673835 0.00641256 0 0 Z " fill="#2683FB" transform="translate(133.75,46.8671875)"/>
<path d="M0 0 C1.5631897 0.00785522 1.5631897 0.00785522 3.15795898 0.01586914 C4.17059814 0.0183667 5.1832373 0.02086426 6.2265625 0.0234375 C7.52263428 0.0325415 8.81870605 0.04164551 10.15405273 0.05102539 C16.31061523 0.08196289 16.31061523 0.08196289 22.59155273 0.11352539 C22.92155273 14.63352539 23.25155273 29.15352539 23.59155273 44.11352539 C27.55155273 41.63852539 27.55155273 41.63852539 31.59155273 39.11352539 C42.79970469 34.35412173 55.26160334 34.86281903 66.61499023 38.78540039 C77.71626253 43.73872399 85.06009064 53.08040029 89.59155273 64.11352539 C94.35667663 77.79243001 92.48299357 92.97382128 86.30639648 105.77758789 C80.7451764 116.0325397 72.30301438 122.55235154 61.35717773 126.18774414 C49.69425855 129.05508008 38.21763806 127.70205915 27.59155273 122.11352539 C26.23137895 121.15035092 24.88667424 120.16254305 23.59155273 119.11352539 C23.26155273 121.09352539 22.93155273 123.07352539 22.59155273 125.11352539 C14.34155273 125.11352539 6.09155273 125.11352539 -2.40844727 125.11352539 C-3.64463847 122.64114298 -3.53426776 121.01400282 -3.53543091 118.24815369 C-3.53825073 117.22032272 -3.54107056 116.19249176 -3.54397583 115.1335144 C-3.5419516 114.0014859 -3.53992737 112.8694574 -3.5378418 111.703125 C-3.53959412 110.51450363 -3.54134644 109.32588226 -3.54315186 108.10124207 C-3.54680593 104.836921 -3.54593967 101.57264029 -3.54277277 98.30831981 C-3.5402461 94.89748596 -3.54258751 91.48665487 -3.54415894 88.07582092 C-3.54597948 82.3483939 -3.54357707 76.62097976 -3.53881836 70.89355469 C-3.53337336 64.26339179 -3.53514058 57.63325963 -3.54064476 51.00309747 C-3.54517607 45.31816021 -3.54582644 39.63323223 -3.5432061 33.94829375 C-3.54164375 30.5495332 -3.54144845 27.15078713 -3.54474258 23.75202751 C-3.54726721 19.96617393 -3.54343131 16.18038034 -3.5378418 12.39453125 C-3.53986603 11.26047852 -3.54189026 10.12642578 -3.54397583 8.95800781 C-3.54115601 7.93299667 -3.53833618 6.90798553 -3.53543091 5.85191345 C-3.53505388 4.95576293 -3.53467686 4.05961241 -3.53428841 3.13630581 C-3.34895763 0.15728435 -2.99257152 0.14105887 0 0 Z M27.09155273 65.55102539 C22.45689592 71.73927139 21.12654629 78.53344808 21.76733398 86.22290039 C23.08235201 92.86440558 26.84400998 99.02015949 32.21655273 103.11352539 C38.97573899 105.95949855 46.89640378 106.23611351 54.00952148 104.53540039 C59.76091474 102.08799901 62.9785059 97.66305808 65.59155273 92.11352539 C68.39964331 84.13137857 67.76195595 76.91160487 64.59155273 69.11352539 C61.16828356 63.4415398 56.89944676 60.69308653 50.71655273 58.42602539 C41.8408016 57.12076787 33.30661394 58.60834727 27.09155273 65.55102539 Z " fill="#1E2938" transform="translate(318.408447265625,46.886474609375)"/>
<path d="M0 0 C1.70077164 1.28954696 3.38276581 2.607122 5 4 C4.38387674 7.15111795 3.33481347 9.26992103 1.49609375 11.890625 C1.00302734 12.59960938 0.50996094 13.30859375 0.00195312 14.0390625 C-0.51431641 14.76867187 -1.03058594 15.49828125 -1.5625 16.25 C-2.08263672 16.99507812 -2.60277344 17.74015625 -3.13867188 18.5078125 C-4.42049385 20.3423467 -5.70771234 22.17283032 -7 24 C-10.34882717 23.25154651 -12.40811093 22.16018107 -15.1875 20.125 C-24.60098459 13.73180281 -35.31472786 11.99005825 -46.5625 13.5625 C-57.02174204 15.853285 -64.78455703 21.37478717 -71 30 C-77.63334823 40.51435197 -78.44357745 52.86543007 -76.53515625 64.94140625 C-73.91319225 74.8552228 -67.77690707 82.86840474 -59.05859375 88.18359375 C-48.33609751 93.91205065 -36.8355721 94.65017263 -25.1875 91.3125 C-18.03851036 88.86906514 -12.06491706 85.6980317 -7 80 C-3.67993813 81.10668729 -2.9417403 81.94572595 -0.75 84.5625 C1.14167278 86.81391397 3.027666 89.02930272 5.046875 91.16796875 C5.69140625 91.85503906 6.3359375 92.54210937 7 93.25 C7.598125 93.87390625 8.19625 94.4978125 8.8125 95.140625 C10 97 10 97 9.96484375 99.01953125 C6.68423375 105.75341494 -4.29050884 110.31434495 -11 113 C-31.01250907 119.61883652 -52.05686579 119.67236266 -71.484375 110.875 C-86.98005903 102.75312423 -97.34739421 90.36132945 -103.06640625 73.9375 C-108.17710983 56.16113972 -106.73828892 37.48050346 -98 21 C-87.9229525 4.91132331 -74.62171133 -5.52168083 -56 -10 C-36.32427477 -14.42098552 -17.00983161 -10.20783135 0 0 Z " fill="#1E2938" transform="translate(721,57)"/>
<path d="M0 0 C2.5851165 1.85296812 4.71563885 3.76640243 7 6 C7.33 3.36 7.66 0.72 8 -2 C16.25 -2 24.5 -2 33 -2 C33 26.71 33 55.42 33 85 C24.75 85 16.5 85 8 85 C7.505 81.535 7.505 81.535 7 78 C6.0409375 78.86625 6.0409375 78.86625 5.0625 79.75 C-4.63977515 86.87820215 -15.27816064 88.10151529 -27 87 C-37.89208998 84.50038839 -47.43234187 78.09870581 -53.515625 68.64453125 C-60.21127358 55.95910067 -62.01083764 42.84490188 -58.4375 28.875 C-54.64683906 17.02419687 -48.91643649 7.48292414 -37.96484375 1.28125 C-25.65020129 -5.06311015 -12.73659498 -6.77915539 0 0 Z M-27.7578125 25.0234375 C-32.51792909 31.76118707 -35.00744332 38.65261253 -34 47 C-32.6147842 53.07632479 -29.64658752 57.85752339 -25 62 C-18.84517392 65.66922324 -12.74093614 65.86974008 -5.828125 64.6015625 C0.073322 62.84027793 3.55359552 58.96434994 7 54 C10.06408921 48.00504286 9.89389681 40.73081482 8.34765625 34.27734375 C5.82435322 27.09730124 1.98869451 22.95002843 -4.8125 19.625 C-13.41693336 17.9378562 -21.65311751 17.99625526 -27.7578125 25.0234375 Z " fill="#1E2937" transform="translate(796,87)"/>
<path d="M0 0 C0.33 -2.31 0.66 -4.62 1 -7 C8.92 -7 16.84 -7 25 -7 C25 21.71 25 50.42 25 80 C17.08 80 9.16 80 1 80 C0.505 76.04 0.505 76.04 0 72 C-0.804375 72.7425 -1.60875 73.485 -2.4375 74.25 C-11.92793923 82.18499907 -23.1761505 82.80171757 -35 82 C-45.01748828 80.45683601 -52.01128456 74.82302389 -58.3984375 67.2109375 C-66.89867635 55.47646143 -68.87507172 42.52188533 -67.57421875 28.34765625 C-65.49520591 16.22715282 -59.53483265 5.73551746 -50 -2 C-32.72431109 -12.25467175 -16.57101456 -10.89456063 0 0 Z M-37 21 C-41.57700905 27.79444201 -41.92877916 35.02797888 -41 43 C-39.48695482 49.88435558 -36.79134797 53.9485433 -31 57.94140625 C-25.98427068 60.5962161 -20.54696628 60.471535 -15 60 C-9.72488387 58.32954656 -5.91276086 55.91276086 -2 52 C0.60427806 46.97083595 1.52341582 42.75544614 1.4375 37.0625 C1.42992676 36.35955811 1.42235352 35.65661621 1.41455078 34.93237305 C1.17729391 27.46917233 -0.63163634 23.47852011 -5.6875 18.1875 C-16.52174171 11.03281208 -27.77840675 11.35924342 -37 21 Z " fill="#1E2938" transform="translate(486,92)"/>
<path d="M0 0 C7.52896013 5.05676426 13.15678856 10.43077109 15.83203125 19.23046875 C16.09523415 20.08786652 16.09523415 20.08786652 16.36375427 20.96258545 C16.9635069 23.86721033 16.95139686 26.59273961 16.94555664 29.55957031 C16.94544334 31.48110931 16.94544334 31.48110931 16.94532776 33.44146729 C16.94022151 34.8346765 16.93500552 36.22788532 16.9296875 37.62109375 C16.92782157 39.05027212 16.92639849 40.47945113 16.92539978 41.90863037 C16.9215884 45.66347023 16.91176992 49.41827118 16.9006958 53.1730957 C16.890452 57.00731887 16.8858958 60.84154834 16.88085938 64.67578125 C16.87014638 72.19403018 16.85256078 79.71223905 16.83203125 87.23046875 C8.58203125 87.23046875 0.33203125 87.23046875 -8.16796875 87.23046875 C-8.22404297 81.16285156 -8.22404297 81.16285156 -8.28125 74.97265625 C-8.31938564 71.73698672 -8.36045818 68.50138398 -8.40351105 65.26577759 C-8.44807965 61.85591901 -8.48753334 58.44618068 -8.5144043 55.03613281 C-8.54551104 51.11888308 -8.60029767 47.20213299 -8.65625 43.28515625 C-8.66263992 42.06931854 -8.66902985 40.85348083 -8.6756134 39.60079956 C-8.74403941 31.47307023 -8.74403941 31.47307023 -12.16796875 24.23046875 C-17.11233695 20.61263836 -22.26983238 20.53883061 -28.16796875 21.23046875 C-33.39113325 22.97152358 -35.53362304 25.44961913 -38.16796875 30.23046875 C-39.16606441 33.36123933 -39.31868937 36.27370572 -39.37329102 39.54980469 C-39.39323624 40.61060242 -39.41318146 41.67140015 -39.43373108 42.76434326 C-39.45879982 44.472341 -39.45879982 44.472341 -39.484375 46.21484375 C-39.5051561 47.38557434 -39.52593719 48.55630493 -39.54734802 49.76251221 C-39.61272503 53.50177144 -39.67167366 57.2411008 -39.73046875 60.98046875 C-39.77366522 63.51563225 -39.81727987 66.05078866 -39.86132812 68.5859375 C-39.96918109 74.80071041 -40.0683433 81.01553668 -40.16796875 87.23046875 C-48.41796875 87.23046875 -56.66796875 87.23046875 -65.16796875 87.23046875 C-65.16796875 58.52046875 -65.16796875 29.81046875 -65.16796875 0.23046875 C-57.24796875 0.23046875 -49.32796875 0.23046875 -41.16796875 0.23046875 C-40.83796875 2.54046875 -40.50796875 4.85046875 -40.16796875 7.23046875 C-39.40484375 6.48796875 -38.64171875 5.74546875 -37.85546875 4.98046875 C-28.51671866 -2.6072657 -11.14945208 -5.3607975 0 0 Z " fill="#1E2937" transform="translate(589.16796875,84.76953125)"/>
<path d="M0 0 C7.92 0 15.84 0 24 0 C24 8.58 24 17.16 24 26 C29.94 26 35.88 26 42 26 C43.1508192 33.54425923 42.72004128 40.39956431 42 48 C36.06 48 30.12 48 24 48 C24.09748075 52.82016678 24.20054285 57.6395801 24.31738281 62.45922852 C24.355418 64.09522486 24.39031288 65.73129761 24.421875 67.36743164 C24.62992539 79.81501973 24.62992539 79.81501973 27 92 C31.95 92.33 36.9 92.66 42 93 C42 99.6 42 106.2 42 113 C31.83884239 115.90318789 22.85099343 116.11630797 13 112 C6.19661423 108.22034124 2.96082747 103.84082579 0.62411499 96.58230591 C-0.46269319 92.08558457 -0.36723113 87.66162965 -0.29296875 83.05859375 C-0.28872391 82.05031021 -0.28447906 81.04202667 -0.28010559 80.00318909 C-0.26344683 76.81434284 -0.22581877 73.626152 -0.1875 70.4375 C-0.17243661 68.26237898 -0.15875112 66.08724796 -0.14648438 63.91210938 C-0.1135853 58.60782423 -0.06189243 53.30402285 0 48 C-4.29 48 -8.58 48 -13 48 C-13 40.74 -13 33.48 -13 26 C-8.71 26 -4.42 26 0 26 C0 17.42 0 8.84 0 0 Z " fill="#1E2937" transform="translate(911,59)"/>
<path d="M0 0 C0 7.92 0 15.84 0 24 C-7.25 25.3125 -7.25 25.3125 -9.51269531 25.7043457 C-13.43987965 26.45376402 -15.96760914 27.42246777 -19 30 C-19.66 30 -20.32 30 -21 30 C-21.28875 30.721875 -21.5775 31.44375 -21.875 32.1875 C-22.5703871 33.92596776 -23.29101086 35.65485997 -24.05137634 37.36590576 C-25.02823675 40.07840651 -25.26771666 42.08917107 -25.30297852 44.95800781 C-25.31962051 45.91539856 -25.33626251 46.87278931 -25.35340881 47.85919189 C-25.36182297 48.88018982 -25.37023712 49.90118774 -25.37890625 50.953125 C-25.39590073 52.00908875 -25.4128952 53.06505249 -25.43040466 54.15301514 C-25.48345417 57.51861639 -25.52381547 60.88420536 -25.5625 64.25 C-25.60638074 67.63001603 -25.65299976 71.00993515 -25.70530701 74.38983154 C-25.7373506 76.49201167 -25.76421336 78.59427805 -25.78553772 80.69659424 C-25.79902756 81.64137634 -25.8125174 82.58615845 -25.82641602 83.55957031 C-25.83592789 84.39498352 -25.84543976 85.23039673 -25.85523987 86.09112549 C-26 88 -26 88 -27 89 C-35.25 89 -43.5 89 -52 89 C-52 60.29 -52 31.58 -52 2 C-44.08 2 -36.16 2 -28 2 C-27.67 4.97 -27.34 7.94 -27 11 C-26.34 10.278125 -25.68 9.55625 -25 8.8125 C-17.34735572 1.15985572 -10.95784718 0 0 0 Z " fill="#1D2836" transform="translate(890,83)"/>
<path d="M0 0 C0.02886984 3.97915159 0.04675406 7.95827653 0.0625 11.9375 C0.07087891 13.07380859 0.07925781 14.21011719 0.08789062 15.38085938 C0.09111328 16.46044922 0.09433594 17.54003906 0.09765625 18.65234375 C0.10289307 19.65257568 0.10812988 20.65280762 0.11352539 21.68334961 C0 24 0 24 -1 25 C-2.89067134 25.323443 -4.78794563 25.60864182 -6.6875 25.875 C-13.0640581 26.91761258 -17.14438691 28.10221389 -21.75 32.8125 C-26.27978069 39.22968931 -26.32607223 45.27187032 -26.4140625 52.8671875 C-26.43342865 53.90191193 -26.4527948 54.93663635 -26.4727478 56.00271606 C-26.53231842 59.29339467 -26.57883905 62.58410868 -26.625 65.875 C-26.66320048 68.11199405 -26.70225341 70.34897372 -26.7421875 72.5859375 C-26.83959897 78.05721498 -26.91934725 83.52834731 -27 89 C-35.25 89 -43.5 89 -52 89 C-52 60.29 -52 31.58 -52 2 C-44.08 2 -36.16 2 -28 2 C-27.67 4.64 -27.34 7.28 -27 10 C-26.05125 9.0925 -25.1025 8.185 -24.125 7.25 C-16.63705547 0.89202698 -9.55358318 -0.27219511 0 0 Z " fill="#1D2937" transform="translate(309,83)"/>
<path d="M0 0 C0.33 0 0.66 0 1 0 C1.16720361 6.10539632 1.32780433 12.21091617 1.48217773 18.31665039 C1.53568107 20.39547448 1.59101658 22.47425222 1.64819336 24.55297852 C1.72987259 27.53391523 1.80504838 30.51495431 1.87890625 33.49609375 C1.90594131 34.43150497 1.93297638 35.3669162 1.96083069 36.33067322 C1.98092697 37.19149002 2.00102325 38.05230682 2.02172852 38.93920898 C2.04171402 39.70087875 2.06169952 40.46254852 2.08229065 41.24729919 C2 43 2 43 1 44 C0.98332326 45.63713147 1.03700518 47.27510069 1.12109375 48.91015625 C1.16943359 49.89951172 1.21777344 50.88886719 1.26757812 51.90820312 C1.32365234 52.94912109 1.37972656 53.99003906 1.4375 55.0625 C1.48970703 56.10728516 1.54191406 57.15207031 1.59570312 58.22851562 C1.72583121 60.81924751 1.86232851 63.40965801 2 66 C7.94 66 13.88 66 20 66 C20.33 64.02 20.66 62.04 21 60 C22.625 59.25 22.625 59.25 25 59 C27.04291182 60.26660533 29.04690112 61.59886384 31 63 C31.66 63 32.32 63 33 63 C33 63.66 33 64.32 33 65 C42.49613298 68.02149686 51.16256984 68.33706931 61 68 C61.33 67.34 61.66 66.68 62 66 C63.8203125 65.32421875 63.8203125 65.32421875 66.125 64.6875 C73.06290058 62.48902513 77.49482013 59.45691028 81 53 C81.66 53 82.32 53 83 53 C83.268125 52.13375 83.53625 51.2675 83.8125 50.375 C85 47 85 47 86.5 44.1875 C91.88805463 32.73788392 91.16596913 19.01372214 88 7 C88.66 6.67 89.32 6.34 90 6 C92.5139245 12.36956642 93.52096719 17.97746471 93.4375 24.8125 C93.42992676 25.6876123 93.42235352 26.56272461 93.41455078 27.46435547 C93.11277069 39.37916229 89.11082028 50.44702389 80.89453125 59.2578125 C70.81177942 68.6637531 60.04502821 71.70530536 46.38671875 71.390625 C38.51997133 70.91583333 31.11332291 67.95164635 25 63 C24.67 64.98 24.34 66.96 24 69 C15.75 69 7.5 69 -1 69 C-2.26942299 66.46115401 -2.12701165 64.68949709 -2.12939453 61.84765625 C-2.13254669 60.77314209 -2.13569885 59.69862793 -2.13894653 58.59155273 C-2.1369223 57.42696533 -2.13489807 56.26237793 -2.1328125 55.0625 C-2.13376923 53.87148682 -2.13472595 52.68047363 -2.13571167 51.45336914 C-2.13639315 48.93147733 -2.1345411 46.40958377 -2.13037109 43.88769531 C-2.12502243 40.01623616 -2.13031721 36.14489302 -2.13671875 32.2734375 C-2.13605796 29.82812474 -2.13477679 27.38281206 -2.1328125 24.9375 C-2.13483673 23.7729126 -2.13686096 22.6083252 -2.13894653 21.40844727 C-2.13579437 20.33393311 -2.13264221 19.25941895 -2.12939453 18.15234375 C-2.12859894 17.20351318 -2.12780334 16.25468262 -2.12698364 15.27709961 C-2 13 -2 13 -1 11 C-0.7724985 9.12943209 -0.59037189 7.25314042 -0.4375 5.375 C-0.35371094 4.37210937 -0.26992188 3.36921875 -0.18359375 2.3359375 C-0.12300781 1.56507812 -0.06242187 0.79421875 0 0 Z " fill="#151D28" transform="translate(317,103)"/>
<path d="M0 0 C1.1653125 -0.00128906 2.330625 -0.00257812 3.53125 -0.00390625 C4.7584375 -0.00003906 5.985625 0.00382812 7.25 0.0078125 C9.09078125 0.00201172 9.09078125 0.00201172 10.96875 -0.00390625 C12.71671875 -0.00197266 12.71671875 -0.00197266 14.5 0 C15.57765625 0.00112793 16.6553125 0.00225586 17.765625 0.00341797 C20.25 0.1328125 20.25 0.1328125 21.25 1.1328125 C21.34502416 3.62773638 21.37557566 6.09487264 21.36352539 8.59008789 C21.36367142 9.37051956 21.36381744 10.15095123 21.3639679 10.95503235 C21.36326858 13.5468723 21.35547536 16.13864128 21.34765625 18.73046875 C21.34579213 20.5226589 21.3443682 22.31484956 21.34336853 24.10704041 C21.33954284 28.83352047 21.32971212 33.55997002 21.31866455 38.28643799 C21.30845153 43.105668 21.30387115 47.92490292 21.29882812 52.74414062 C21.28808989 62.20704469 21.27101286 71.66992606 21.25 81.1328125 C20.59 81.1328125 19.93 81.1328125 19.25 81.1328125 C19.25 55.0628125 19.25 28.9928125 19.25 2.1328125 C11.33 2.1328125 3.41 2.1328125 -4.75 2.1328125 C-4.42 31.5028125 -4.09 60.8728125 -3.75 91.1328125 C-6.83883268 84.95514713 -6.8987324 78.903642 -6.87939453 72.10205078 C-6.88114685 71.33210281 -6.88289917 70.56215485 -6.88470459 69.76887512 C-6.88907414 67.24693489 -6.88620424 64.72506583 -6.8828125 62.203125 C-6.88348653 60.44432563 -6.88445739 58.68552635 -6.88571167 56.92672729 C-6.88718164 53.2535513 -6.88505509 49.58039971 -6.88037109 45.90722656 C-6.87464894 41.18920534 -6.87797287 36.4712407 -6.88394356 31.75322151 C-6.88754661 28.12797616 -6.88641221 24.50274437 -6.88381577 20.87749863 C-6.88314709 19.13668689 -6.88397286 17.39587394 -6.88629532 15.65506363 C-6.88882036 13.23241119 -6.88498455 10.80985244 -6.87939453 8.38720703 C-6.88141876 7.66309128 -6.88344299 6.93897552 -6.88552856 6.19291687 C-6.85839261 -0.11972949 -6.15706955 0.0064443 0 0 Z " fill="#3A80D6" transform="translate(133.75,46.8671875)"/>
<path d="M0 0 C5.85731475 4.16839577 10.66050924 9.8522618 12.0625 17.0625 C12.86187474 23.4574979 13.75793247 31.00580802 10.5 36.8203125 C6.05966436 42.39486431 0.28550925 46.70147142 -6.875 47.625 C-8.6075 47.7178125 -8.6075 47.7178125 -10.375 47.8125 C-8.2309078 45.39624749 -6.65689074 44.41696687 -3.5625 43.5625 C2.24629577 41.51925876 5.30642437 37.44965126 8 32.0625 C9.66937031 23.38177437 9.15227008 15.55357291 4.625 7.8125 C0.81280321 3.25071395 -3.90099387 1.13038291 -9.765625 0.59375 C-15.15170575 0.40023812 -18.65486548 0.98041929 -23.375 3.8125 C-24.035 3.8125 -24.695 3.8125 -25.375 3.8125 C-25.6225 4.328125 -25.87 4.84375 -26.125 5.375 C-27.16125779 7.39570269 -28.26993725 9.30547732 -29.4375 11.25 C-32.71300529 16.997355 -33.41807151 23.4348849 -31.87890625 29.89453125 C-30.09076275 35.1781417 -27.56009638 40.05771717 -22.49609375 42.84765625 C-20.8190873 43.57605299 -19.09912895 44.2039839 -17.375 44.8125 C-17.375 45.4725 -17.375 46.1325 -17.375 46.8125 C-16.055 47.1425 -14.735 47.4725 -13.375 47.8125 C-19.39821797 48.58470743 -23.64087256 46.29758643 -28.375 42.8125 C-34.52943264 36.28642287 -35.97128088 29.40468887 -35.8046875 20.59375 C-34.97633051 13.30420851 -32.59300721 6.54477028 -26.890625 1.703125 C-18.45881092 -3.53557606 -8.98926685 -5.31494675 0 0 Z " fill="#141C28" transform="translate(795.375,106.1875)"/>
<path d="M0 0 C4.99465883 0.47568179 8.10903025 1.8164793 12 5 C15.80776892 11.89024852 15.13396576 20.11208944 15.09765625 27.7421875 C15.0962413 28.86569611 15.09482635 29.98920471 15.09336853 31.14675903 C15.08778664 34.72286683 15.07523741 38.29891123 15.0625 41.875 C15.05748266 44.30468659 15.05292016 46.73437417 15.04882812 49.1640625 C15.03782313 55.1093993 15.02057092 61.05468891 15 67 C24.9 66.505 24.9 66.505 35 66 C35 62.04 35 58.08 35 54 C34.34 54 33.68 54 33 54 C33.495 53.01 33.495 53.01 34 52 C34.27511629 48.88638233 34.44668648 45.77312062 34.62109375 42.65234375 C34.80865234 41.33943359 34.80865234 41.33943359 35 40 C35.66 39.67 36.32 39.34 37 39 C37 48.9 37 58.8 37 69 C28.75 69 20.5 69 12 69 C11.96261719 64.95492187 11.92523437 60.90984375 11.88671875 56.7421875 C11.84858311 53.50651797 11.80751057 50.27091523 11.7644577 47.03530884 C11.7198891 43.62545026 11.68043541 40.21571193 11.65356445 36.80566406 C11.62245771 32.88841433 11.56767108 28.97166424 11.51171875 25.0546875 C11.50532883 23.83884979 11.4989389 22.62301208 11.49235535 21.37033081 C11.4112285 13.25095197 11.4112285 13.25095197 8 6 C6.02385975 4.30932615 6.02385975 4.30932615 3.8125 3.1875 C2.5323708 2.47477942 1.25847168 1.75030022 0 1 C0 0.67 0 0.34 0 0 Z " fill="#1A222C" transform="translate(569,103)"/>
<path d="M0 0 C0.99 0.66 1.98 1.32 3 2 C2.84144531 2.65226562 2.68289063 3.30453125 2.51953125 3.9765625 C-0.4755915 21.40682571 3.38522714 38.22464497 13 53 C21.93907429 65.13160082 34.58316093 71.39579023 49 75 C49 75.66 49 76.32 49 77 C49.77730469 76.8246875 50.55460938 76.649375 51.35546875 76.46875 C56.07928038 75.8611858 60.57326231 76.18065352 65.3125 76.5 C67.12078983 76.61928368 68.92938051 76.73411965 70.73828125 76.84375 C71.53274658 76.89724609 72.32721191 76.95074219 73.14575195 77.00585938 C75.01717476 77.21778151 75.01717476 77.21778151 76 76 C77.66617115 75.95936168 79.33388095 75.957279 81 76 C81.33 76.66 81.66 77.32 82 78 C61.55638985 81.62080289 41.20793709 79.44400499 23.73046875 67.44140625 C9.58581285 57.00761408 1.81842699 43.04091235 -1.39453125 25.89453125 C-2.72747362 16.99047619 -2.07603702 8.71194108 0 0 Z " fill="#141B26" transform="translate(617,95)"/>
<path d="M0 0 C3.32006187 1.10668729 4.0582597 1.94572595 6.25 4.5625 C8.14167278 6.81391397 10.027666 9.02930272 12.046875 11.16796875 C12.69140625 11.85503906 13.3359375 12.54210937 14 13.25 C14.598125 13.87390625 15.19625 14.4978125 15.8125 15.140625 C17 17 17 17 16.96484375 19.01953125 C13.67002033 25.78258986 2.70591007 30.25812235 -4 33 C-6.95744002 33.94818688 -9.88348478 34.88581733 -13 35 C-13.66 34.34 -14.32 33.68 -15 33 C-12.39802798 31.99394407 -9.79370638 30.99497475 -7.1875 30 C-6.44951172 29.71382812 -5.71152344 29.42765625 -4.95117188 29.1328125 C-4.23896484 28.86210937 -3.52675781 28.59140625 -2.79296875 28.3125 C-2.1383667 28.06113281 -1.48376465 27.80976563 -0.80932617 27.55078125 C1 27 1 27 4 27 C4 26.34 4 25.68 4 25 C5.98 24.34 7.96 23.68 10 23 C10 22.34 10 21.68 10 21 C10.66 21 11.32 21 12 21 C13.1490712 19.0745356 13.1490712 19.0745356 13 17 C10.97686744 14.22755908 8.8323954 11.83638598 6.375 9.4375 C4.29018101 7.29781736 3.11188358 5.72916878 2 3 C1.34 3 0.68 3 0 3 C0 3.66 0 4.32 0 5 C-3.71748342 9.45091342 -7.35340845 11.45202793 -12.6875 13.3125 C-13.42210449 13.5703125 -14.15670898 13.828125 -14.91357422 14.09375 C-27.34144794 18.06730573 -40.60696593 17.40616475 -52.3125 11.5625 C-53.15425781 11.15128906 -53.99601563 10.74007812 -54.86328125 10.31640625 C-57 9 -57 9 -59 6 C-55.67173018 6.41603373 -53.11620119 7.38361317 -50.1875 8.9375 C-40.00803989 14.14075563 -29.11419305 14.44346657 -18.1875 11.3125 C-11.03851036 8.86906514 -5.06491706 5.6980317 0 0 Z " fill="#141B26" transform="translate(714,137)"/>
<path d="M0 0 C3.3 0 6.6 0 10 0 C10.02886984 3.97915159 10.04675406 7.95827653 10.0625 11.9375 C10.07087891 13.07380859 10.07925781 14.21011719 10.08789062 15.38085938 C10.09272461 17.00024414 10.09272461 17.00024414 10.09765625 18.65234375 C10.10551147 20.15269165 10.10551147 20.15269165 10.11352539 21.68334961 C10 24 10 24 9 25 C7.10932866 25.323443 5.21205437 25.60864182 3.3125 25.875 C-3.0640581 26.91761258 -7.14438691 28.10221389 -11.75 32.8125 C-16.27978069 39.22968931 -16.32607223 45.27187032 -16.4140625 52.8671875 C-16.43342865 53.90191193 -16.4527948 54.93663635 -16.4727478 56.00271606 C-16.53231842 59.29339467 -16.57883905 62.58410868 -16.625 65.875 C-16.66320048 68.11199405 -16.70225341 70.34897372 -16.7421875 72.5859375 C-16.83800138 78.05716358 -16.92311431 83.52847695 -17 89 C-17.66 88.67 -18.32 88.34 -19 88 C-19.07647595 81.61376677 -19.12877762 75.22765298 -19.16479492 68.84106445 C-19.17982036 66.6714232 -19.20024653 64.50181202 -19.22631836 62.33227539 C-19.26297706 59.2019099 -19.27978926 56.0719483 -19.29296875 52.94140625 C-19.30845261 51.98166397 -19.32393646 51.02192169 -19.33988953 50.03309631 C-19.34161087 43.04211437 -18.44739004 36.57415872 -14.421875 30.6953125 C-7.61257206 24.2996588 -2.56697461 23.06299718 7 22 C7.33 15.73 7.66 9.46 8 3 C5.03 3 2.06 3 -1 3 C-0.67 2.01 -0.34 1.02 0 0 Z " fill="#141C26" transform="translate(299,83)"/>
<path d="M0 0 C0.99 0.495 0.99 0.495 2 1 C2 28.72 2 56.44 2 85 C9.92 84.505 9.92 84.505 18 84 C18.66 84 19.32 84 20 84 C21.33783393 83.68521554 22.67203709 83.35412344 24 83 C24.33 84.32 24.66 85.64 25 87 C16.75 87 8.5 87 0 87 C0 58.29 0 29.58 0 0 Z " fill="#111821" transform="translate(524,85)"/>
<path d="M0 0 C0.66 -1.65 1.32 -3.3 2 -5 C8.27 -5 14.54 -5 21 -5 C21 -4.67 21 -4.34 21 -4 C15.06 -4 9.12 -4 3 -4 C3 -1.36 3 1.28 3 4 C0.22556663 3.58897283 -1.00696421 2.99395512 -3.16015625 1.125 C-6.48805392 -1.36520128 -9.81799408 -2.57894104 -13.75 -3.75 C-14.46373779 -3.96462891 -15.17747559 -4.17925781 -15.9128418 -4.40039062 C-25.78195975 -7.23008425 -35.13743884 -6.69696458 -44.37109375 -1.72265625 C-45.71399204 -0.87256467 -47.04118586 0.00337147 -48.34375 0.9140625 C-50 2 -50 2 -53 3 C-54.02651373 4.71519747 -54.02651373 4.71519747 -55 7 C-55.97131659 8.68361543 -56.94264052 10.36722662 -57.9140625 12.05078125 C-59.72907135 15.30865685 -61.35591886 18.65312053 -63 22 C-63.33 22 -63.66 22 -64 22 C-64.78492859 15.87755703 -62.4157024 11.85895693 -59 7 C-43.16134045 -12.58821977 -20.03728172 -13.17344692 0 0 Z " fill="#151D28" transform="translate(486,92)"/>
<path d="M0 0 C1.61648438 0.01353516 1.61648438 0.01353516 3.265625 0.02734375 C4.08546875 0.03894531 4.9053125 0.05054687 5.75 0.0625 C5.75 0.7225 5.75 1.3825 5.75 2.0625 C6.74 2.3925 7.73 2.7225 8.75 3.0625 C6.95793453 2.92165204 5.16635083 2.77466299 3.375 2.625 C2.37726562 2.54378906 1.37953125 2.46257812 0.3515625 2.37890625 C-2.25 2.0625 -2.25 2.0625 -4.25 1.0625 C-4.25 1.7225 -4.25 2.3825 -4.25 3.0625 C-5.19875 3.10375 -6.1475 3.145 -7.125 3.1875 C-14.83356724 4.28424737 -21.0773219 9.57632626 -26.25 15.0625 C-27.24 15.3925 -28.23 15.7225 -29.25 16.0625 C-29.83537249 17.90155802 -29.83537249 17.90155802 -30.25 20.0625 C-31.0129041 21.57733116 -31.80762032 23.07635513 -32.625 24.5625 C-37.04157991 33.16522956 -38.46530356 41.29161118 -37.8125 50.8125 C-37.69068359 52.63007813 -37.69068359 52.63007813 -37.56640625 54.484375 C-37.28007847 57.7223533 -36.83333952 60.86638767 -36.25 64.0625 C-37.24 64.5575 -37.24 64.5575 -38.25 65.0625 C-43.24926692 50.4813048 -42.23213038 36.72047512 -35.70703125 22.76171875 C-29.47258255 11.30574093 -20.69161308 4.56375518 -8.28125 0.40234375 C-5.50237849 -0.06258283 -2.81518056 -0.03059979 0 0 Z " fill="#151D28" transform="translate(777.25,82.9375)"/>
<path d="M0 0 C2.62506802 -0.02690844 5.24986173 -0.04679404 7.875 -0.0625 C8.62136719 -0.07087891 9.36773438 -0.07925781 10.13671875 -0.08789062 C15.7734375 -0.11328125 15.7734375 -0.11328125 18 1 C18.10372765 7.43111423 17.72027812 13.60753173 17 20 C11.06 20 5.12 20 -1 20 C-0.90251925 24.82016678 -0.79945715 29.6395801 -0.68261719 34.45922852 C-0.644582 36.09522486 -0.60968712 37.73129761 -0.578125 39.36743164 C-0.53644432 51.85990921 -0.53644432 51.85990921 2 64 C2.99 64.33 3.98 64.66 5 65 C1 65 1 65 -0.67626953 63.32910156 C-5.57655097 54.70706451 -4.24715978 42.81995104 -4.125 33.25 C-4.11493717 31.85938154 -4.10581723 30.46875592 -4.09765625 29.078125 C-4.07432595 25.71856181 -4.0415923 22.35937825 -4 19 C-0.06041353 16.80204539 3.3328103 16.76728691 7.75 16.875 C10.1425 16.91625 12.535 16.9575 15 17 C15 11.72 15 6.44 15 1 C10.05 1 5.1 1 0 1 C0 0.67 0 0.34 0 0 Z " fill="#18202A" transform="translate(936,87)"/>
<path d="M0 0 C0.00142502 0.56661346 0.00285004 1.13322693 0.00431824 1.7170105 C0.02412261 7.65557237 0.07862387 13.59312115 0.15258789 19.53125 C0.17567492 21.74243888 0.19014161 23.95373629 0.19555664 26.16503906 C0.20491413 29.35810246 0.2460544 32.54948075 0.29296875 35.7421875 C0.28706978 37.20686966 0.28706978 37.20686966 0.28105164 38.70114136 C0.42285824 45.48873758 1.72518284 51.54512704 6 57 C8.56811854 58.30473844 8.56811854 58.30473844 11 59 C11 59.66 11 60.32 11 61 C11.928125 61.309375 12.85625 61.61875 13.8125 61.9375 C15.875 62.625 17.9375 63.3125 20 64 C14.71653071 65.51899742 12.03759482 64.04258486 7.37109375 61.51171875 C1.12302642 57.52818983 -1.29748597 52.02798938 -3 45 C-3.36540503 41.48815887 -3.35259997 38.0237605 -3.29296875 34.49609375 C-3.28872391 33.5322023 -3.28447906 32.56831085 -3.28010559 31.57521057 C-3.26345681 28.52900985 -3.22583111 25.48349712 -3.1875 22.4375 C-3.1724353 20.35873359 -3.15875004 18.27995669 -3.14648438 16.20117188 C-3.11359864 11.13385384 -3.06191324 6.06704313 -3 1 C-1 0 -1 0 0 0 Z " fill="#1B2430" transform="translate(914,108)"/>
<path d="M0 0 C0.33 0.99 0.66 1.98 1 3 C0.49210938 3.3403125 -0.01578125 3.680625 -0.5390625 4.03125 C-9.95219117 10.65922075 -15.84911081 19.56956028 -18 31 C-18.7210392 43.56272147 -18.02971342 53.57685404 -10.3046875 63.9921875 C-8.98454278 66.02378745 -8.43509834 67.63348949 -8 70 C-11.90156658 66.96544821 -14.79575992 64.53093795 -17 60 C-17 59.34 -17 58.68 -17 58 C-17.66 57.67 -18.32 57.34 -19 57 C-23.20341889 42.78935907 -22.96363373 29.76821525 -17 16 C-16.34 16 -15.68 16 -15 16 C-14.773125 15.29875 -14.54625 14.5975 -14.3125 13.875 C-11.1709579 6.99352684 -6.41794511 3.5991454 0 0 Z " fill="#151D29" transform="translate(662,72)"/>
<path d="M0 0 C0.33 0 0.66 0 1 0 C1 27.72 1 55.44 1 84 C-1.45275141 85.2263757 -3.0505781 85.11415314 -5.7890625 85.09765625 C-6.73007812 85.09443359 -7.67109375 85.09121094 -8.640625 85.08789062 C-9.62546875 85.07951172 -10.6103125 85.07113281 -11.625 85.0625 C-12.61757813 85.05798828 -13.61015625 85.05347656 -14.6328125 85.04882812 C-17.0886016 85.03702145 -19.54427104 85.020554 -22 85 C-22.33 82.36 -22.66 79.72 -23 77 C-24.299375 78.1446875 -24.299375 78.1446875 -25.625 79.3125 C-28.56780391 81.74864191 -31.41459315 83.59701471 -35 85 C-37.375 84.6875 -37.375 84.6875 -39 84 C-36.22543602 81.22543602 -32.95473289 80.03235228 -29.41015625 78.4140625 C-26.88904703 77.15195338 -26.88904703 77.15195338 -25.43359375 74.8359375 C-24.96050781 74.23007813 -24.48742187 73.62421875 -24 73 C-22.68 73 -21.36 73 -20 73 C-20 76.3 -20 79.6 -20 83 C-18.72382813 82.91621094 -17.44765625 82.83242187 -16.1328125 82.74609375 C-14.46355965 82.64293768 -12.79428779 82.54008901 -11.125 82.4375 C-9.86236328 82.35338867 -9.86236328 82.35338867 -8.57421875 82.26757812 C-7.76855469 82.21923828 -6.96289062 82.17089844 -6.1328125 82.12109375 C-5.01737061 82.05039673 -5.01737061 82.05039673 -3.87939453 81.97827148 C-2 82 -2 82 0 83 C0 55.61 0 28.22 0 0 Z " fill="#121B26" transform="translate(509,87)"/>
<path d="M0 0 C5.75656716 0.37542829 10.04937187 2.16914357 15.125 4.8125 C15.81464844 5.15603516 16.50429688 5.49957031 17.21484375 5.85351562 C21.18413075 7.87610642 24.61108651 10.06601848 28 13 C27.38387674 16.15111795 26.33481347 18.26992103 24.49609375 20.890625 C24.00302734 21.59960938 23.50996094 22.30859375 23.00195312 23.0390625 C22.48568359 23.76867187 21.96941406 24.49828125 21.4375 25.25 C20.91736328 25.99507812 20.39722656 26.74015625 19.86132812 27.5078125 C18.57950615 29.3423467 17.29228766 31.17283032 16 33 C12.65117283 32.25154651 10.59188907 31.16018107 7.8125 29.125 C3.42187043 26.09094368 -0.86951586 24.38268367 -6 23 C-5.34 22.34 -4.68 21.68 -4 21 C0.83420337 21.25909694 3.77434405 22.88524507 7.6875 25.625 C10.40061934 27.59285164 10.40061934 27.59285164 13 29 C16.40451771 27.86516076 16.6005564 27.44722063 18.1875 24.4375 C18.785625 23.303125 19.38375 22.16875 20 21 C20.66 21 21.32 21 22 21 C22.2165625 20.1028125 22.2165625 20.1028125 22.4375 19.1875 C22.8872439 17.43849596 23.42892341 15.71322977 24 14 C23.175 13.54625 22.35 13.0925 21.5 12.625 C20.675 12.08875 19.85 11.5525 19 11 C19 10.34 19 9.68 19 9 C18.236875 8.7525 17.47375 8.505 16.6875 8.25 C13.55405653 7.18781577 10.42993743 6.10805468 7.3125 5 C5.91451172 4.505 5.91451172 4.505 4.48828125 4 C2 3 2 3 -1 1 C-0.67 0.67 -0.34 0.34 0 0 Z " fill="#131B27" transform="translate(698,48)"/>
<path d="M0 0 C0.99 0.66 1.98 1.32 3 2 C2.83886719 2.68449219 2.67773438 3.36898437 2.51171875 4.07421875 C1.04957719 12.43409686 1.50269239 20.92047538 4 29 C4.144375 29.886875 4.28875 30.77375 4.4375 31.6875 C5.12753052 34.52429213 6.45728502 36.53165603 8 39 C8.28359375 39.79019531 8.5671875 40.58039063 8.859375 41.39453125 C10.13047501 44.2980371 11.56618742 45.96695774 13.8125 48.1875 C14.47894531 48.86167969 15.14539063 49.53585938 15.83203125 50.23046875 C18.14418926 52.11768962 20.21056894 52.98940285 23 54 C24.36365283 54.95824253 25.70794169 55.94721175 27 57 C24 58 24 58 22.01953125 57.28515625 C9.56939311 50.38800008 3.04421495 40.57058793 -1 27 C-2.52942484 18.36872419 -2.78982377 8.36947131 0 0 Z " fill="#141C27" transform="translate(420,114)"/>
<path d="M0 0 C2.98082979 1.49319034 5.70129211 3.32820515 8.47265625 5.17578125 C8.47265625 5.83578125 8.47265625 6.49578125 8.47265625 7.17578125 C9.13265625 7.17578125 9.79265625 7.17578125 10.47265625 7.17578125 C11.33632447 8.96288711 12.18834219 10.75562775 13.03515625 12.55078125 C13.51082031 13.54851562 13.98648438 14.54625 14.4765625 15.57421875 C14.96962891 16.86199219 14.96962891 16.86199219 15.47265625 18.17578125 C15.14265625 18.83578125 14.81265625 19.49578125 14.47265625 20.17578125 C13.81265625 20.17578125 13.15265625 20.17578125 12.47265625 20.17578125 C12.2303125 19.58410156 11.98796875 18.99242188 11.73828125 18.3828125 C8.65256774 11.10764948 6.06345889 6.33861568 -1.52734375 3.17578125 C-8.22805409 0.71885413 -14.83821941 2.03611917 -21.1875 4.765625 C-25.93921516 7.62934649 -28.79659023 11.9835207 -30.52734375 17.17578125 C-31.18734375 17.17578125 -31.84734375 17.17578125 -32.52734375 17.17578125 C-32.85734375 17.83578125 -33.18734375 18.49578125 -33.52734375 19.17578125 C-32.92745102 14.37663942 -31.44267882 10.04275419 -28.52734375 6.17578125 C-20.1769464 -0.17599641 -10.37429084 -3.3832695 0 0 Z " fill="#151D27" transform="translate(372.52734375,103.82421875)"/>
<path d="M0 0 C1.485 0.495 1.485 0.495 3 1 C5.4375 3.25 5.4375 3.25 8 6 C8.721875 6.763125 9.44375 7.52625 10.1875 8.3125 C13.86459059 13.76473777 14.2678649 19.57124246 14 26 C11.19525987 22.94028349 10.49542635 20.07759308 9.58203125 16.08984375 C8.25343419 11.31937779 6.05404473 7.866659 2.1875 4.6875 C-4.33143775 1.23629766 -9.86350584 0.25692709 -17 2 C-21.88591475 3.93900743 -24.85513225 6.84428191 -28 11 C-28.99 11.33 -29.98 11.66 -31 12 C-29.51614453 7.10327696 -26.84746532 3.32475845 -23 0 C-15.94550644 -2.75005681 -6.78232783 -3.81862155 0 0 Z " fill="#131B26" transform="translate(476,105)"/>
<path d="M0 0 C2.97 0 5.94 0 9 0 C9 7.92 9 15.84 9 24 C1.75 25.3125 1.75 25.3125 -0.51269531 25.7043457 C-4.43987965 26.45376402 -6.96760914 27.42246777 -10 30 C-10.66 30 -11.32 30 -12 30 C-12.4021875 31.0209375 -12.4021875 31.0209375 -12.8125 32.0625 C-14.16053306 35.39710809 -15.57536298 38.69743237 -17 42 C-17.66 42 -18.32 42 -19 42 C-18.10800409 35.21775525 -16.37164852 30.43046224 -11 26 C-4.62795587 21.95159602 -1.00575891 22 7 22 C7 15.4 7 8.8 7 2 C2.545 2.495 2.545 2.495 -2 3 C-1.34 2.01 -0.68 1.02 0 0 Z " fill="#161E28" transform="translate(881,83)"/>
<path d="M0 0 C0.66 0 1.32 0 2 0 C2.33 14.19 2.66 28.38 3 43 C6.96 40.525 6.96 40.525 11 38 C15.5 36.6875 15.5 36.6875 19 36 C19 36.99 19 37.98 19 39 C16.03 39.66 13.06 40.32 10 41 C10 41.66 10 42.32 10 43 C8.71349294 43.69710731 7.42059335 44.38242876 6.125 45.0625 C5.04605469 45.63677734 5.04605469 45.63677734 3.9453125 46.22265625 C3.30335938 46.47917969 2.66140625 46.73570313 2 47 C1.34 46.67 0.68 46.34 0 46 C0 30.82 0 15.64 0 0 Z " fill="#151D28" transform="translate(339,48)"/>
<path d="M0 0 C0.66 0.66 1.32 1.32 2 2 C1.625 5.125 1.625 5.125 1 8 C0.34 8 -0.32 8 -1 8 C-1.495 6.515 -1.495 6.515 -2 5 C-2.9590625 5.86625 -2.9590625 5.86625 -3.9375 6.75 C-13.62812223 13.86964082 -24.2879168 15.12139995 -36 14 C-41.72464807 12.65380802 -46.4040541 10.67886495 -51 7 C-47.42859705 5.80953235 -46.93918301 6.22316271 -43.6875 7.8125 C-42.883125 8.18375 -42.07875 8.555 -41.25 8.9375 C-40.5075 9.288125 -39.765 9.63875 -39 10 C-31.18674099 13.64618754 -21.7404602 11.70656567 -13.875 8.875 C-8.79732799 6.67356922 -4.43861753 3.25974929 0 0 Z " fill="#131A25" transform="translate(805,160)"/>
<path d="M0 0 C-1.051875 0.8353125 -1.051875 0.8353125 -2.125 1.6875 C-4.10789453 3.2824369 -6.06504777 4.9097283 -8 6.5625 C-11 9 -11 9 -13.4375 10.3125 C-19.92556047 14.58512519 -23.70116697 20.85349714 -27.3125 27.5625 C-27.64999268 28.18737305 -27.98748535 28.81224609 -28.33520508 29.45605469 C-30.4634672 33.55652431 -31.86454246 37.52157102 -33 42 C-33.66 41.34 -34.32 40.68 -35 40 C-34.073751 27.14366387 -24.95676558 16.45559792 -16 8 C-13.4279569 5.82917873 -10.81332276 3.84458426 -8 2 C-4.77208445 -0.1519437 -3.71599191 -0.20086443 0 0 Z " fill="#141C27" transform="translate(653,53)"/>
<path d="M0 0 C0.66 0 1.32 0 2 0 C2.59114986 7.98052305 0.59059907 14.94577076 -4.3125 21.375 C-10.34275885 27.26502027 -16.39757395 29.23646462 -24.671875 29.16796875 C-28.00273044 28.92765535 -30.8445855 28.07418366 -34 27 C-33.505 25.515 -33.505 25.515 -33 24 C-32.20335937 24.23783203 -32.20335937 24.23783203 -31.390625 24.48046875 C-24.28526384 26.02460769 -16.01252934 26.23226988 -9.6484375 22.37890625 C-3.87852386 17.55241451 -2.36484401 11.53957997 -1.359375 4.3203125 C-1 2 -1 2 0 0 Z " fill="#141B29" transform="translate(386,126)"/>
<path d="M0 0 C10.08997291 -1.56204602 20.85617691 0.27311633 29.6015625 5.578125 C35.40111171 9.88414482 40.00640345 15.00960517 44 21 C44.125 23.6875 44.125 23.6875 44 26 C43.58878906 25.44699219 43.17757812 24.89398438 42.75390625 24.32421875 C40.84543347 21.79517353 38.9019381 19.29834037 36.9375 16.8125 C36.24527344 15.93207031 35.55304688 15.05164063 34.83984375 14.14453125 C33.17855332 11.92775901 33.17855332 11.92775901 31 11 C31 10.34 31 9.68 31 9 C20.24808006 4.34083469 9.65971922 2.74089513 -2 3 C-1.34 2.01 -0.68 1.02 0 0 Z " fill="#161D29" transform="translate(361,83)"/>
<path d="M0 0 C0.33 0 0.66 0 1 0 C1.02321213 10.6836857 1.04096025 21.36736535 1.05181217 32.05107117 C1.05702161 37.0124094 1.06408396 41.97373032 1.07543945 46.93505859 C1.08633735 51.72666595 1.09229144 56.51825669 1.09487724 61.30987549 C1.09671907 63.13421897 1.10031565 64.95856158 1.10573006 66.78289795 C1.11303216 69.3461704 1.11398709 71.909375 1.11352539 74.47265625 C1.11712067 75.22000534 1.12071594 75.96735443 1.12442017 76.73735046 C1.09987167 89.40518609 1.09987167 89.40518609 -1.25 92.8125 C-7.42105263 97 -7.42105263 97 -11 97 C-10.52949219 96.5153125 -10.05898437 96.030625 -9.57421875 95.53125 C-8.95160156 94.8609375 -8.32898438 94.190625 -7.6875 93.5 C-6.76517578 92.52546875 -6.76517578 92.52546875 -5.82421875 91.53125 C-1.57415467 85.63394481 -0.55371879 79.71793603 -0.56762695 72.65625 C-0.5574353 71.86504257 -0.54724365 71.07383514 -0.53674316 70.25865173 C-0.5068169 67.67236056 -0.49737877 65.08644095 -0.48828125 62.5 C-0.47141941 60.69538156 -0.45326715 58.89077476 -0.43388367 57.08618164 C-0.38654093 52.35821164 -0.35663009 47.63028884 -0.33044434 42.90216064 C-0.30055917 38.06879356 -0.25405629 33.23558885 -0.20898438 28.40234375 C-0.12313034 18.93498105 -0.05570574 9.46758476 0 0 Z " fill="#3A7FD4" transform="translate(218,48)"/>
<path d="M0 0 C1.32 0.33 2.64 0.66 4 1 C10.27 1.33 16.54 1.66 23 2 C23 25.43 23 48.86 23 73 C22.67 73 22.34 73 22 73 C22 49.9 22 26.8 22 3 C12.595 3.495 12.595 3.495 3 4 C2.67 5.98 2.34 7.96 2 10 C0 8 0 8 -0.1953125 6.0546875 C-0.13020833 4.03645833 -0.06510417 2.01822917 0 0 Z " fill="#151E2C" transform="translate(804,85)"/>
<path d="M0 0 C0.33 0 0.66 0 1 0 C1.33 4.62 1.66 9.24 2 14 C2.33 14 2.66 14 3 14 C3.02465622 18.25414623 3.04283899 22.50825498 3.05493164 26.76245117 C3.05997101 28.21070073 3.06680253 29.65894517 3.07543945 31.10717773 C3.08752247 33.18474588 3.09323211 35.26224697 3.09765625 37.33984375 C3.10289307 38.59144287 3.10812988 39.84304199 3.11352539 41.13256836 C3 44 3 44 2 45 C-0.9375 45.1875 -0.9375 45.1875 -4 45 C-4.66 44.34 -5.32 43.68 -6 43 C-4.02 43 -2.04 43 0 43 C0 28.81 0 14.62 0 0 Z " fill="#121E2D" transform="translate(861,127)"/>
<path d="M0 0 C0.66 0.99 1.32 1.98 2 3 C1.71979004 3.82773926 1.43958008 4.65547852 1.15087891 5.50830078 C-0.43275692 10.31295916 -0.35580631 14.83851521 -0.4140625 19.8671875 C-0.43342865 20.90191193 -0.4527948 21.93663635 -0.4727478 23.00271606 C-0.53231842 26.29339467 -0.57883905 29.58410868 -0.625 32.875 C-0.66320048 35.11199405 -0.70225341 37.34897372 -0.7421875 39.5859375 C-0.83800138 45.05716358 -0.92311431 50.52847695 -1 56 C-1.66 55.67 -2.32 55.34 -3 55 C-3.07647595 48.61376677 -3.12877762 42.22765298 -3.16479492 35.84106445 C-3.17982036 33.6714232 -3.20024653 31.50181202 -3.22631836 29.33227539 C-3.26297706 26.2019099 -3.27978926 23.0719483 -3.29296875 19.94140625 C-3.30845261 18.98166397 -3.32393646 18.02192169 -3.33988953 17.03309631 C-3.34141841 10.82375293 -2.34609662 5.75343161 0 0 Z " fill="#0E141D" transform="translate(283,116)"/>
<path d="M0 0 C0.33 0 0.66 0 1 0 C1.16790838 6.03213713 1.32843704 12.06440894 1.48217773 18.09692383 C1.53549465 20.14840966 1.59081563 22.19984443 1.64819336 24.2512207 C1.73039243 27.20252476 1.80534507 30.1539383 1.87890625 33.10546875 C1.90594131 34.02023483 1.93297638 34.93500092 1.96083069 35.87748718 C2.05871074 40.06867119 2.10241794 43.91325874 1 48 C0.34 47.67 -0.32 47.34 -1 47 C-2.35077225 39.93836788 -2.14880664 32.7907986 -2.125 25.625 C-2.13080078 23.84416016 -2.13080078 23.84416016 -2.13671875 22.02734375 C-2.13542969 20.89683594 -2.13414062 19.76632813 -2.1328125 18.6015625 C-2.13168457 17.57369629 -2.13055664 16.54583008 -2.12939453 15.48681641 C-2 13 -2 13 -1 11 C-0.7724985 9.12943209 -0.59037189 7.25314042 -0.4375 5.375 C-0.35371094 4.37210937 -0.26992188 3.36921875 -0.18359375 2.3359375 C-0.12300781 1.56507812 -0.06242187 0.79421875 0 0 Z " fill="#141921" transform="translate(317,103)"/>
<path d="M0 0 C0.99 0.495 0.99 0.495 2 1 C4.0374763 1.22858114 6.08040303 1.41024278 8.125 1.5625 C9.76855469 1.68818359 9.76855469 1.68818359 11.4453125 1.81640625 C12.28835938 1.87699219 13.13140625 1.93757813 14 2 C14 2.33 14 2.66 14 3 C10.37 3 6.74 3 3 3 C3 8.28 3 13.56 3 19 C6.63 19 10.26 19 14 19 C12 21 12 21 9 22 C6.03 22 3.06 22 0 22 C0 14.74 0 7.48 0 0 Z " fill="#19232D" transform="translate(898,85)"/>
<path d="M0 0 C0 0.99 0 1.98 0 3 C-1.27875 2.835 -2.5575 2.67 -3.875 2.5 C-13.01484608 1.52889135 -21.30223491 1.55877897 -30 5 C-30.33 5.66 -30.66 6.32 -31 7 C-31.99 7 -32.98 7 -34 7 C-34 7.66 -34 8.32 -34 9 C-34.99 9.33 -35.98 9.66 -37 10 C-37 7 -37 7 -35.1875 5.0625 C-25.24486537 -1.37096947 -11.52576516 -3.70148594 0 0 Z " fill="#161E29" transform="translate(587,84)"/>
<path d="M0 0 C1.65 0.33 3.3 0.66 5 1 C5 6.94 5 12.88 5 19 C-0.19345814 20.48384518 -2.89949659 21.24939515 -7.9375 21.125 C-8.89527344 21.10695312 -9.85304688 21.08890625 -10.83984375 21.0703125 C-11.55269531 21.04710937 -12.26554688 21.02390625 -13 21 C-13 20.01 -13 19.02 -13 18 C-8.05 18 -3.1 18 2 18 C2 12.39 2 6.78 2 1 C1.34 0.67 0.68 0.34 0 0 Z " fill="#0D111C" transform="translate(948,153)"/>
<path d="M0 0 C7.92 0 15.84 0 24 0 C23.67 1.32 23.34 2.64 23 4 C22.67 3.34 22.34 2.68 22 2 C15.73 2 9.46 2 3 2 C3 8.6 3 15.2 3 22 C2.01 22 1.02 22 0 22 C0 14.74 0 7.48 0 0 Z " fill="#19212B" transform="translate(911,59)"/>
<path d="M0 0 C3 1 3 1 3.94042969 2.60717773 C6.28217609 9.45498824 6.38136937 15.87413254 6.25 23.0625 C6.24484375 24.19494141 6.2396875 25.32738281 6.234375 26.49414062 C6.17922952 32.41194001 5.88812702 38.1483889 5 44 C3.24666879 40.96500409 2.75177084 38.78905871 2.76953125 35.296875 C2.77146484 34.39839844 2.77339844 33.49992187 2.77539062 32.57421875 C2.78763672 31.64222656 2.79988281 30.71023437 2.8125 29.75 C2.81314453 28.83347656 2.81378906 27.91695312 2.81445312 26.97265625 C2.84917406 21.56390606 3.21487977 16.35137948 4 11 C3.34 10.67 2.68 10.34 2 10 C1.3671875 7.71484375 1.3671875 7.71484375 0.875 4.9375 C0.70742188 4.01839844 0.53984375 3.09929687 0.3671875 2.15234375 C0.24601563 1.44207031 0.12484375 0.73179688 0 0 Z " fill="#151D28" transform="translate(600,98)"/>
<path d="M0 0 C0.33 0 0.66 0 1 0 C1.12375 0.7425 1.2475 1.485 1.375 2.25 C1.86642729 4.91848652 1.86642729 4.91848652 2.93359375 6.86328125 C4.08580602 9.17192634 4.8562478 11.49640193 5.6875 13.9375 C7.70519405 19.04949351 10.13969476 21.5317913 15 24 C16.65910004 24.68528045 18.32332564 25.35891863 20 26 C20.33 26.66 20.66 27.32 21 28 C15.52366806 27.56189345 12.20575033 26.57936199 8 23 C2.21350567 15.86010126 -0.37925958 9.29185971 0 0 Z " fill="#141C27" transform="translate(442,126)"/>
<path d="M0 0 C-2 2 -2 2 -4.43359375 2.125 C-5.92052734 2.063125 -5.92052734 2.063125 -7.4375 2 C-13.52713035 1.89021099 -19.06706924 2.71593758 -25 4 C-26.66631016 4.33511092 -28.33287609 4.66896108 -30 5 C-29 2 -29 2 -27.1796875 1.0859375 C-18.00728438 -1.74351567 -9.22039578 -3.59820323 0 0 Z " fill="#131B26" transform="translate(694,68)"/>
<path d="M0 0 C2.27979357 3.41969035 3.82985925 6.97054535 5.48828125 10.72265625 C7.33269614 13.50119341 8.85486545 14.06752292 12 15 C12 15.66 12 16.32 12 17 C12.928125 17.309375 13.85625 17.61875 14.8125 17.9375 C16.875 18.625 18.9375 19.3125 21 20 C15.71914868 21.51824475 13.04709217 20.03720279 8.375 17.52734375 C3.69197846 14.51572957 0.40497446 10.47940038 -1 5 C-0.625 2.1875 -0.625 2.1875 0 0 Z " fill="#121C26" transform="translate(913,152)"/>
<path d="M0 0 C0.66 0 1.32 0 2 0 C2.33 2.97 2.66 5.94 3 9 C3.70125 8.2575 4.4025 7.515 5.125 6.75 C7.9601856 4.03808334 10.56705231 1.89907744 14 0 C16.375 0.25 16.375 0.25 18 1 C16.02 1.99 16.02 1.99 14 3 C14 3.66 14 4.32 14 5 C12.35 5.33 10.7 5.66 9 6 C9 6.66 9 7.32 9 8 C6.1875 10.1875 6.1875 10.1875 3 12 C2.01 11.67 1.02 11.34 0 11 C0 7.37 0 3.74 0 0 Z " fill="#151D28" transform="translate(860,85)"/>
<path d="M0 0 C-1.33483921 2.66967842 -2.55557725 2.72123014 -5.3125 3.75 C-9.80738047 5.69064681 -11.82650018 7.47912037 -14 12 C-14.83142122 14.66247027 -15.43334145 17.26115036 -16 20 C-16.66 20 -17.32 20 -18 20 C-18.28944223 14.40411686 -18.20887163 10.81330745 -15 6 C-10.29239592 1.12097056 -6.63124564 -0.18420127 0 0 Z " fill="#151D28" transform="translate(565,103)"/>
<path d="M0 0 C0.33 0.66 0.66 1.32 1 2 C1.66 2.33 2.32 2.66 3 3 C3.0825 4.299375 3.165 5.59875 3.25 6.9375 C3.81177955 13.55165928 7.3476569 19.3476569 12 24 C11.34 24.33 10.68 24.66 10 25 C8 23.625 8 23.625 6 22 C6 21.34 6 20.68 6 20 C5.34 20 4.68 20 4 20 C4 19.34 4 18.68 4 18 C3.34 17.67 2.68 17.34 2 17 C-0.18220673 11.30201576 -0.21915315 6.05106191 0 0 Z " fill="#161F2A" transform="translate(338,125)"/>
<path d="M0 0 C0.66 0 1.32 0 2 0 C2.19613594 3.02049342 2.38214855 6.04105658 2.5625 9.0625 C2.61857422 9.91005859 2.67464844 10.75761719 2.73242188 11.63085938 C3.02040528 16.60337287 2.89796753 21.09776245 2 26 C1.67 26 1.34 26 1 26 C1 23.69 1 21.38 1 19 C0.34 18.67 -0.32 18.34 -1 18 C-1.02684312 15.18743719 -1.04676188 12.37512759 -1.0625 9.5625 C-1.07087891 8.76005859 -1.07925781 7.95761719 -1.08789062 7.13085938 C-1.0965143 5.08704779 -1.0522815 3.04316098 -1 1 C-0.67 0.67 -0.34 0.34 0 0 Z " fill="#141921" transform="translate(316,55)"/>
<path d="M0 0 C0.66 0 1.32 0 2 0 C1.08023211 5.2042563 -2.16913204 8.53677772 -6 12 C-10.14226196 14.37259995 -14.20586272 15.44945037 -19 15 C-18 13 -18 13 -16.14453125 12.32421875 C-15.37496094 12.11410156 -14.60539062 11.90398437 -13.8125 11.6875 C-7.06762871 9.55359001 -3.52897744 6.17571053 0 0 Z " fill="#151C27" transform="translate(486,139)"/>
<path d="M0 0 C1.21904148 3.65712445 0.72920276 4.27029477 -0.9375 7.625 C-3.82480341 13.17123254 -7.65961721 17.54114522 -12 22 C-12.33 21.01 -12.66 20.02 -13 19 C-11.8203125 17.0625 -11.8203125 17.0625 -10.125 15 C-8.12428693 12.54331047 -7.01546215 11.04638646 -6 8 C-5.34 7.67 -4.68 7.34 -4 7 C-2.88365848 5.34948712 -2.88365848 5.34948712 -1.875 3.4375 C-1.25625 2.303125 -0.6375 1.16875 0 0 Z " fill="#2D7ADE" transform="translate(242,138)"/>
<path d="M0 0 C3.7289526 1.2429842 3.96658741 2.25862498 5.8125 5.625 C8.47077673 10.261994 11.4011612 14.05841465 15 18 C12 18 12 18 10.09765625 16.49609375 C0 6.28214971 0 6.28214971 0 0 Z " fill="#141B28" transform="translate(740,148)"/>
<path d="M0 0 C2.1640625 -0.29296875 2.1640625 -0.29296875 4.625 -0.1875 C5.44226563 -0.16042969 6.25953125 -0.13335937 7.1015625 -0.10546875 C8.04128906 -0.05326172 8.04128906 -0.05326172 9 0 C9.13690844 7.72772107 8.75166913 15.30881404 8 23 C6.68 22.67 5.36 22.34 4 22 C4.99 22 5.98 22 7 22 C7 15.4 7 8.8 7 2 C2.545 2.495 2.545 2.495 -2 3 C-1.34 2.01 -0.68 1.02 0 0 Z " fill="#111822" transform="translate(881,83)"/>
<path d="M0 0 C2.1875 1.4375 2.1875 1.4375 4 3 C0.06607877 4.28057332 -3.90922375 4.18379459 -8 4.1875 C-8.7115625 4.19974609 -9.423125 4.21199219 -10.15625 4.22460938 C-13.934487 4.2351828 -16.79693658 4.11035168 -20 2 C-19 1 -19 1 -15.5078125 0.9375 C-13.30575185 0.96165423 -11.10419182 1.0003657 -8.90234375 1.0390625 C-5.65695475 1.07453123 -3.10355696 1.03451899 0 0 Z " fill="#101620" transform="translate(467,170)"/>
<path d="M0 0 C0.02888146 3.31248187 0.04675799 6.62493167 0.0625 9.9375 C0.07087891 10.88302734 0.07925781 11.82855469 0.08789062 12.80273438 C0.09111328 13.70185547 0.09433594 14.60097656 0.09765625 15.52734375 C0.10289307 16.35999756 0.10812988 17.19265137 0.11352539 18.05053711 C0 20 0 20 -1 21 C-3.9375 21.1875 -3.9375 21.1875 -7 21 C-7.66 20.34 -8.32 19.68 -9 19 C-7.02 19 -5.04 19 -3 19 C-3 13.06 -3 7.12 -3 1 C-1 0 -1 0 0 0 Z " fill="#0B111C" transform="translate(864,151)"/>
<path d="M0 0 C3.08325358 -0.0582253 6.16636505 -0.09367134 9.25 -0.125 C10.55904297 -0.15013672 10.55904297 -0.15013672 11.89453125 -0.17578125 C12.73886719 -0.18222656 13.58320312 -0.18867187 14.453125 -0.1953125 C15.22817383 -0.20578613 16.00322266 -0.21625977 16.80175781 -0.22705078 C19.25883539 0.02673444 20.87311542 0.77555848 23 2 C22 3 22 3 19.77514648 3.02172852 C18.81680908 2.97459717 17.85847168 2.92746582 16.87109375 2.87890625 C15.83662109 2.83056641 14.80214844 2.78222656 13.73632812 2.73242188 C12.64771484 2.67634766 11.55910156 2.62027344 10.4375 2.5625 C9.34501953 2.51029297 8.25253906 2.45808594 7.12695312 2.40429688 C4.41770924 2.27415852 1.70879206 2.13917946 -1 2 C-0.67 1.34 -0.34 0.68 0 0 Z " fill="#151D28" transform="translate(674,46)"/>
<path d="M0 0 C4.99465883 0.47568179 8.10903025 1.8164793 12 5 C14.12646063 8.67297744 14.19495279 11.80851493 14 16 C13.34 16 12.68 16 12 16 C11.82984375 15.38511719 11.6596875 14.77023438 11.484375 14.13671875 C10.09096112 9.18867331 10.09096112 9.18867331 7.125 5.125 C6.42375 4.75375 5.7225 4.3825 5 4 C3.32665961 3.01120795 1.65848177 2.01351664 0 1 C0 0.67 0 0.34 0 0 Z " fill="#161C26" transform="translate(569,103)"/>
<path d="M0 0 C2.62506802 -0.02690844 5.24986173 -0.04679404 7.875 -0.0625 C8.62136719 -0.07087891 9.36773438 -0.07925781 10.13671875 -0.08789062 C15.7734375 -0.11328125 15.7734375 -0.11328125 18 1 C18 3.97 18 6.94 18 10 C17.34 10 16.68 10 16 10 C16 12.64 16 15.28 16 18 C15.34 17.67 14.68 17.34 14 17 C14.33 11.72 14.66 6.44 15 1 C10.05 1 5.1 1 0 1 C0 0.67 0 0.34 0 0 Z " fill="#121B26" transform="translate(936,87)"/>
<path d="M0 0 C1.01126953 0.23009766 1.01126953 0.23009766 2.04296875 0.46484375 C5.46877952 1.08483857 8.83893447 1.3352574 12.3125 1.5625 C13.56675781 1.64628906 14.82101562 1.73007813 16.11328125 1.81640625 C17.54220703 1.90728516 17.54220703 1.90728516 19 2 C18.01 2.33 17.02 2.66 16 3 C16 3.66 16 4.32 16 5 C10.22192976 5.2358396 5.48675196 4.86783046 0 3 C0 2.01 0 1.02 0 0 Z " fill="#1A222E" transform="translate(352,150)"/>
<path d="M0 0 C3.3 0 6.6 0 10 0 C10 6.93 10 13.86 10 21 C9.67 21 9.34 21 9 21 C9 14.73 9 8.46 9 2 C8.01 2.495 8.01 2.495 7 3 C4.3276379 3.13415472 1.67749512 3.04318541 -1 3 C-0.67 2.01 -0.34 1.02 0 0 Z " fill="#1B212B" transform="translate(299,83)"/>
<path d="M0 0 C1.31742187 0.07863281 2.63484375 0.15726563 3.9921875 0.23828125 C5.02601563 0.38652344 6.05984375 0.53476563 7.125 0.6875 C7.455 1.3475 7.785 2.0075 8.125 2.6875 C4.66673658 2.74539006 1.20859707 2.78105821 -2.25 2.8125 C-3.23484375 2.82925781 -4.2196875 2.84601563 -5.234375 2.86328125 C-6.17539062 2.86972656 -7.11640625 2.87617188 -8.0859375 2.8828125 C-9.38990479 2.89852295 -9.38990479 2.89852295 -10.72021484 2.91455078 C-12.875 2.6875 -12.875 2.6875 -14.875 0.6875 C-9.78445501 -0.19177595 -5.1880181 -0.34415566 0 0 Z " fill="#171F2A" transform="translate(272.875,169.3125)"/>
<path d="M0 0 C0.66 0.99 1.32 1.98 2 3 C-4 6 -4 6 -6.3125 7.0625 C-8.18189338 7.89321682 -8.18189338 7.89321682 -9 10 C-9.66 10 -10.32 10 -11 10 C-11 10.66 -11 11.32 -11 12 C-11.66 12 -12.32 12 -13 12 C-12.62073124 9.38474375 -12.2303394 8.22032464 -10.29296875 6.3671875 C-9.59816406 5.87476562 -8.90335937 5.38234375 -8.1875 4.875 C-7.50042969 4.37742187 -6.81335938 3.87984375 -6.10546875 3.3671875 C-4.12282889 2.07975902 -2.13597804 1.00798964 0 0 Z " fill="#171F29" transform="translate(295,84)"/>
<path d="M0 0 C0.87454834 0.04713135 1.74909668 0.0942627 2.65014648 0.14282227 C4.06650391 0.21533203 4.06650391 0.21533203 5.51147461 0.28930664 C6.50469727 0.34538086 7.49791992 0.40145508 8.52124023 0.45922852 C9.51833008 0.51143555 10.51541992 0.56364258 11.54272461 0.61743164 C14.01501545 0.74755221 16.48694653 0.88253033 18.95874023 1.02172852 C18.62874023 3.99172852 18.29874023 6.96172852 17.95874023 10.02172852 C17.62874023 10.02172852 17.29874023 10.02172852 16.95874023 10.02172852 C16.95874023 7.38172852 16.95874023 4.74172852 16.95874023 2.02172852 C11.01874023 2.02172852 5.07874023 2.02172852 -1.04125977 2.02172852 C-1.37125977 4.33172852 -1.70125977 6.64172852 -2.04125977 9.02172852 C-2.37125977 9.02172852 -2.70125977 9.02172852 -3.04125977 9.02172852 C-3.13891602 2.86938477 -3.13891602 2.86938477 -3.04125977 1.02172852 C-2.04125977 0.02172852 -2.04125977 0.02172852 0 0 Z " fill="#17202D" transform="translate(261.041259765625,85.978271484375)"/>
<path d="M0 0 C0 0.66 0 1.32 0 2 C-2.9555331 2.72246365 -5.91336646 3.42840941 -8.875 4.125 C-9.71675781 4.33253906 -10.55851563 4.54007813 -11.42578125 4.75390625 C-12.23144531 4.94082031 -13.03710938 5.12773438 -13.8671875 5.3203125 C-14.98262939 5.58739014 -14.98262939 5.58739014 -16.12060547 5.85986328 C-16.74080566 5.9061084 -17.36100586 5.95235352 -18 6 C-18.66 5.34 -19.32 4.68 -20 4 C-17.93847611 3.35105763 -15.87573742 2.7059736 -13.8125 2.0625 C-12.66394531 1.70285156 -11.51539063 1.34320313 -10.33203125 0.97265625 C-2.58031088 -1.29015544 -2.58031088 -1.29015544 0 0 Z " fill="#121A26" transform="translate(672,47)"/>
<path d="M0 0 C3.96 0 7.92 0 12 0 C12.33 0.66 12.66 1.32 13 2 C10.35541621 3.32229189 8.32238699 3.09677194 5.375 3.0625 C4.37210938 3.05347656 3.36921875 3.04445312 2.3359375 3.03515625 C1.56507813 3.02355469 0.79421875 3.01195312 0 3 C0 2.01 0 1.02 0 0 Z " fill="#161C26" transform="translate(935,171)"/>
<path d="M0 0 C3.30084784 1.78641391 6.51708003 3.10512401 10.125 4.1875 C6.29405403 5.64029835 3.78299654 4.6902187 0 3.375 C-1.05445313 3.01792969 -2.10890625 2.66085938 -3.1953125 2.29296875 C-5.875 1.1875 -5.875 1.1875 -7.875 -0.8125 C-4.52095933 -1.98268752 -3.0635192 -1.74091553 0 0 Z " fill="#3680DD" transform="translate(161.875,167.8125)"/>
<path d="M0 0 C2 3 2 3 2 5 C3.32 5.33 4.64 5.66 6 6 C6 6.66 6 7.32 6 8 C6.9590625 8.1546875 6.9590625 8.1546875 7.9375 8.3125 C8.9584375 8.6528125 8.9584375 8.6528125 10 9 C10.33 9.99 10.66 10.98 11 12 C6.93501119 10.62815653 4.32603439 8.77931541 1.1875 5.875 C0.39730469 5.15054688 -0.39289063 4.42609375 -1.20703125 3.6796875 C-1.79871094 3.12539062 -2.39039063 2.57109375 -3 2 C-2.01 1.34 -1.02 0.68 0 0 Z " fill="#3279E0" transform="translate(143,155)"/>
<path d="M0 0 C0.66 0.66 1.32 1.32 2 2 C1.625 5.125 1.625 5.125 1 8 C0.34 8 -0.32 8 -1 8 C-1.33 7.01 -1.66 6.02 -2 5 C-2.99 5.99 -3.98 6.98 -5 8 C-6.32 7.34 -7.64 6.68 -9 6 C-6 4 -3 2 0 0 Z " fill="#181F2C" transform="translate(805,160)"/>
<path d="M0 0 C2.29141286 -0.05384521 4.58318188 -0.09272087 6.875 -0.125 C8.78925781 -0.15980469 8.78925781 -0.15980469 10.7421875 -0.1953125 C14 0 14 0 16 2 C12.57767028 3.14077657 9.91326783 3.09815117 6.3125 3.0625 C4.54326172 3.04896484 4.54326172 3.04896484 2.73828125 3.03515625 C1.83464844 3.02355469 0.93101562 3.01195312 0 3 C0 2.01 0 1.02 0 0 Z " fill="#171F29" transform="translate(838,169)"/>
<path d="M0 0 C0.36491677 4.5006402 0.36491677 4.5006402 -1.1875 6.625 C-6.95454545 11 -6.95454545 11 -11 11 C-9.89718873 9.72799029 -8.79269231 8.45744147 -7.6875 7.1875 C-7.07261719 6.47980469 -6.45773438 5.77210938 -5.82421875 5.04296875 C-1.32122371 0 -1.32122371 0 0 0 Z " fill="#327EE5" transform="translate(218,134)"/>
<path d="M0 0 C0.66 0.66 1.32 1.32 2 2 C-2.83323235 6.14277059 -6.53597935 8.36937261 -13 8 C-10.82089773 5.54765607 -9.04355813 4.45350032 -5.9375 3.4375 C-3.19631961 2.53398244 -2.09299206 2.09299206 0 0 Z " fill="#121824" transform="translate(798,146)"/>
<path d="M0 0 C4.69056641 0.5863208 9.08968731 2.35048907 13 5 C13.33 5.99 13.66 6.98 14 8 C8.24857558 6.70886391 4.62256741 4.6791863 0 1 C0 0.67 0 0.34 0 0 Z " fill="#131A25" transform="translate(655,143)"/>
<path d="M0 0 C3.99500618 1.3697164 6.80009492 3.25722422 10 6 C9.67 6.99 9.34 7.98 9 9 C8.01 9 7.02 9 6 9 C6 8.01 6 7.02 6 6 C2.535 4.02 2.535 4.02 -1 2 C-0.67 1.34 -0.34 0.68 0 0 Z " fill="#151E29" transform="translate(792,86)"/>
<path d="M0 0 C3.63 0 7.26 0 11 0 C11 0.66 11 1.32 11 2 C8.03 2 5.06 2 2 2 C1.34 3.32 0.68 4.64 0 6 C-0.66 5.34 -1.32 4.68 -2 4 C-1.34 2.68 -0.68 1.36 0 0 Z " fill="#18212D" transform="translate(317,48)"/>
<path d="M0 0 C0.99 0.33 1.98 0.66 3 1 C1.3990869 2.15037471 -0.20585225 3.29514816 -1.8125 4.4375 C-3.15248047 5.39462891 -3.15248047 5.39462891 -4.51953125 6.37109375 C-7 8 -7 8 -10 9 C-9.8125 7.125 -9.8125 7.125 -9 5 C-6.6875 3.9375 -6.6875 3.9375 -4 3 C-3.29875 2.443125 -2.5975 1.88625 -1.875 1.3125 C-1.25625 0.879375 -0.6375 0.44625 0 0 Z " fill="#357ED4" transform="translate(226,160)"/>
<path d="M0 0 C4.29 0 8.58 0 13 0 C12.67 2.64 12.34 5.28 12 8 C11.67 8 11.34 8 11 8 C11 5.69 11 3.38 11 1 C9.9275 1.350625 8.855 1.70125 7.75 2.0625 C3.07692308 3.23076923 3.07692308 3.23076923 0 2 C0 1.34 0 0.68 0 0 Z " fill="#1C222D" transform="translate(940,152)"/>
<path d="M0 0 C1.4540625 0.0309375 1.4540625 0.0309375 2.9375 0.0625 C2.9375 0.3925 2.9375 0.7225 2.9375 1.0625 C5.9075 1.3925 8.8775 1.7225 11.9375 2.0625 C11.9375 2.3925 11.9375 2.7225 11.9375 3.0625 C10.02114783 3.11673638 8.10435075 3.15539963 6.1875 3.1875 C4.58648437 3.22230469 4.58648437 3.22230469 2.953125 3.2578125 C0.01279894 3.06737687 -1.58611878 2.58920104 -4.0625 1.0625 C-3.0625 0.0625 -3.0625 0.0625 0 0 Z " fill="#161D25" transform="translate(451.0625,170.9375)"/>
<path d="M0 0 C1.32 0.66 2.64 1.32 4 2 C3.34 2 2.68 2 2 2 C1.67 2.66 1.34 3.32 1 4 C0.01 4 -0.98 4 -2 4 C-2 4.66 -2 5.32 -2 6 C-2.99 6.33 -3.98 6.66 -5 7 C-5 6.01 -5 5.02 -5 4 C-2.5 1.8125 -2.5 1.8125 0 0 Z " fill="#141B24" transform="translate(555,87)"/>
<path d="M0 0 C0.99 0.33 1.98 0.66 3 1 C1.36587557 2.70840281 0.13093906 3.93453047 -2 5 C-4.3329866 5.04022391 -6.66706666 5.04320247 -9 5 C-8.443125 4.731875 -7.88625 4.46375 -7.3125 4.1875 C-4.90694879 3.00469337 -4.90694879 3.00469337 -2.4375 1.3125 C-1.633125 0.879375 -0.82875 0.44625 0 0 Z " fill="#387EE0" transform="translate(205,146)"/>
<path d="M0 0 C0.33 0 0.66 0 1 0 C1.16435547 0.95712891 1.16435547 0.95712891 1.33203125 1.93359375 C1.49058594 2.75988281 1.64914062 3.58617187 1.8125 4.4375 C1.96332031 5.26121094 2.11414063 6.08492187 2.26953125 6.93359375 C2.51058594 7.61550781 2.75164063 8.29742187 3 9 C3.99 9.33 4.98 9.66 6 10 C2 10 2 10 0.1875 8.375 C-1.38563147 5.22873707 -0.83607904 3.34431617 0 0 Z " fill="#131821" transform="translate(935,142)"/>
<path d="M0 0 C1.88391785 3.26545761 2.49287967 6.28111761 3 10 C2.01 10.495 2.01 10.495 1 11 C-0.62950412 6.87831311 -1.26264601 4.29299643 0 0 Z " fill="#151C27" transform="translate(738,137)"/>
<path d="M0 0 C4.24846075 0.47205119 6.26819288 2.88877522 9 6 C9 6.66 9 7.32 9 8 C4.7257442 6.4169423 2.73468206 3.49431596 0 0 Z " fill="#161C24" transform="translate(592,89)"/>
<path d="M0 0 C1.32 0.33 2.64 0.66 4 1 C4.33 2.65 4.66 4.3 5 6 C3.0625 5.25 3.0625 5.25 1 4 C0.25 1.875 0.25 1.875 0 0 Z " fill="#297FE8" transform="translate(134,147)"/>
<path d="M0 0 C3.25543229 0.34879632 4.01873107 1.02133261 6.25 3.5625 C6.8275 4.366875 7.405 5.17125 8 6 C7.01 6.495 7.01 6.495 6 7 C4 5.625 4 5.625 2 4 C2 3.34 2 2.68 2 2 C1.34 2 0.68 2 0 2 C0 1.34 0 0.68 0 0 Z " fill="#0F1822" transform="translate(342,143)"/>
<path d="M0 0 C1.125 1.75 1.125 1.75 2 4 C1.125 6.25 1.125 6.25 0 8 C-0.66 7.34 -1.32 6.68 -2 6 C-1.44444444 1.44444444 -1.44444444 1.44444444 0 0 Z " fill="#2C7BE9" transform="translate(132,135)"/>
<path d="M0 0 C1 2 1 2 0.0625 5.125 C-0.288125 6.07375 -0.63875 7.0225 -1 8 C-1.66 8 -2.32 8 -3 8 C-3.36923077 3.44615385 -3.36923077 3.44615385 -1.5 1.1875 C-1.005 0.795625 -0.51 0.40375 0 0 Z " fill="#151C29" transform="translate(446,117)"/>
<path d="" fill="#000000" transform="translate(0,0)"/>
<path d="" fill="#000000" transform="translate(0,0)"/>
<path d="" fill="#000000" transform="translate(0,0)"/>
</svg>
